<svg width="802" height="832" viewBox="0 0 802 832" fill="none" xmlns="http://www.w3.org/2000/svg">
<g filter="url(#filter0_d)">
<path d="M110.522 4H58C30.3858 4 8 26.3858 8 54V110.105" stroke="#FF0000" stroke-width="8" stroke-linecap="round"/>
<path d="M691.478 4.00037H744C771.614 4.00037 794 26.3861 794 54.0004V110.106" stroke="#FF0000" stroke-width="8" stroke-linecap="round"/>
<path d="M110.522 820H58C30.3858 820 8 797.614 8 770V713.895" stroke="#FF0000" stroke-width="8" stroke-linecap="round"/>
<path d="M691.478 820H744C771.614 820 794 797.614 794 770V713.895" stroke="#FF0000" stroke-width="8" stroke-linecap="round"/>
</g>
<path opacity="0.5" d="M630.953 83.125H627.141V92H623.391V69.25H630.578C631.745 69.2604 632.818 69.4115 633.797 69.7031C634.786 69.9844 635.641 70.4115 636.359 70.9844C637.078 71.5469 637.635 72.2552 638.031 73.1094C638.427 73.9635 638.625 74.9635 638.625 76.1094C638.625 76.8802 638.521 77.5833 638.312 78.2188C638.115 78.8438 637.833 79.4115 637.469 79.9219C637.104 80.4323 636.667 80.8802 636.156 81.2656C635.646 81.651 635.083 81.9792 634.469 82.25L639.281 91.8125V92H635.281L630.953 83.125ZM627.141 80.0938H630.594C631.219 80.0938 631.792 80.0052 632.312 79.8281C632.833 79.651 633.281 79.401 633.656 79.0781C634.042 78.7448 634.339 78.3438 634.547 77.875C634.755 77.3958 634.859 76.849 634.859 76.2344C634.859 75.599 634.76 75.0365 634.562 74.5469C634.365 74.0573 634.078 73.6458 633.703 73.3125C633.339 72.9792 632.891 72.7292 632.359 72.5625C631.828 72.3854 631.234 72.2917 630.578 72.2812H627.141V80.0938ZM655.875 81.7969H646.516V88.9375H657.469V92H642.75V69.25H657.359V72.3438H646.516V78.7656H655.875V81.7969ZM677.125 85.0156C677.021 86.1094 676.76 87.1094 676.344 88.0156C675.927 88.9115 675.375 89.6823 674.688 90.3281C674 90.9635 673.188 91.4583 672.25 91.8125C671.323 92.1562 670.286 92.3281 669.141 92.3281C667.755 92.3281 666.547 92.0625 665.516 91.5312C664.484 90.9896 663.625 90.2604 662.938 89.3438C662.25 88.4271 661.734 87.3542 661.391 86.125C661.047 84.8958 660.87 83.5833 660.859 82.1875V79.0781C660.87 77.6927 661.052 76.3854 661.406 75.1562C661.76 73.9167 662.281 72.8385 662.969 71.9219C663.667 70.9948 664.531 70.2656 665.562 69.7344C666.594 69.1927 667.792 68.9219 669.156 68.9219C670.354 68.9219 671.422 69.099 672.359 69.4531C673.297 69.8073 674.099 70.3073 674.766 70.9531C675.432 71.599 675.964 72.3854 676.359 73.3125C676.755 74.2396 677.01 75.2708 677.125 76.4062H673.375C673.312 75.7396 673.182 75.1354 672.984 74.5938C672.797 74.0417 672.536 73.5729 672.203 73.1875C671.87 72.7917 671.448 72.4896 670.938 72.2812C670.438 72.0729 669.844 71.9688 669.156 71.9688C668.312 71.9688 667.604 72.1615 667.031 72.5469C666.458 72.9323 665.995 73.4531 665.641 74.1094C665.286 74.7552 665.031 75.5052 664.875 76.3594C664.729 77.2135 664.656 78.1094 664.656 79.0469V82.1875C664.656 83.1667 664.729 84.0885 664.875 84.9531C665.031 85.8073 665.281 86.5573 665.625 87.2031C665.969 87.849 666.427 88.3594 667 88.7344C667.573 89.1094 668.286 89.2969 669.141 89.2969C670.453 89.2969 671.453 88.9271 672.141 88.1875C672.828 87.4375 673.234 86.3802 673.359 85.0156H677.125Z" fill="#FF0000"/>
<circle cx="714.5" cy="78.5" r="22.5" fill="#FF0000"/>
<defs>
<filter id="filter0_d" x="0" y="0" width="802" height="832" filterUnits="userSpaceOnUse" color-interpolation-filters="sRGB">
<feFlood flood-opacity="0" result="BackgroundImageFix"/>
<feColorMatrix in="SourceAlpha" type="matrix" values="0 0 0 0 0 0 0 0 0 0 0 0 0 0 0 0 0 0 127 0"/>
<feOffset dy="4"/>
<feGaussianBlur stdDeviation="2"/>
<feColorMatrix type="matrix" values="0 0 0 0 0 0 0 0 0 0 0 0 0 0 0 0 0 0 0.25 0"/>
<feBlend mode="normal" in2="BackgroundImageFix" result="effect1_dropShadow"/>
<feBlend mode="normal" in="SourceGraphic" in2="effect1_dropShadow" result="shape"/>
</filter>
</defs>
</svg>
