<svg width="334" height="334" viewBox="0 0 334 334" fill="none" xmlns="http://www.w3.org/2000/svg">
<mask id="path-1-inside-1" fill="white">
<path d="M236.808 195.641L236.718 195.531L236.614 195.4L236.504 195.27C234.835 193.297 232.877 191.588 230.695 190.202C234.015 185.529 235.988 180.034 236.398 174.316C236.675 170.506 236.191 166.679 234.973 163.058C233.755 159.438 231.828 156.096 229.304 153.228L229.174 153.078C228.741 152.578 228.29 152.094 227.822 151.627C220.308 144.113 209.421 141.533 199.301 143.959L203.688 129.561L240.825 109.014C244.016 107.205 246.805 104.764 249.021 101.84C251.236 98.9168 252.832 95.5721 253.711 92.0106C255.637 84.3864 254.289 76.018 250.024 69.0578L249.918 68.8843L249.804 68.7174C248.568 66.709 247.102 64.8513 245.437 63.1819C242.942 60.6533 239.958 58.6609 236.666 57.3269C233.375 55.9929 229.845 55.3454 226.294 55.4242L228.059 49.615C231.373 39.7085 228.526 28.3272 220.779 20.5794C217.973 17.7733 214.699 15.5878 211.046 14.0696L211.012 14.0496L210.422 13.7993C203.178 10.9331 195.12 11.0833 188.316 14.2097C185.102 15.6679 182.223 17.7713 179.856 20.3893C177.49 23.0073 175.687 26.084 174.559 29.4283L174.513 29.5684L174.472 29.7085L156.448 88.8542L91.73 123.048L91.5932 123.118L91.463 123.195C91.2161 123.329 90.7957 123.515 90.2685 123.776C63.0047 136.719 46.9887 159.908 42.6544 192.698C38.9907 220.432 50.1419 250.342 72.4908 272.691C94.9699 295.17 123.912 305.5 148.013 299.638C169.594 294.406 190.365 274.002 204.486 257.025C207.347 255.887 209.989 254.263 212.297 252.224L233.501 233.548C244.639 223.732 246.101 206.762 236.808 195.641ZM192.664 31.5437C196.464 19.0879 209.955 22.3812 214.466 26.8924C219.691 32.1176 221.91 39.8353 219.524 46.8256L213.738 65.8179L175.83 86.7888L192.664 31.5437ZM223.381 71.2233C228.353 68.3737 236.868 67.286 242.394 73.6991C249.924 82.4378 245.764 95.8278 236.454 101.166L196.177 123.452L184.105 163.051L176.631 169.438C163.405 159.455 163.428 152.584 169.488 146.178L196.171 123.459L152.871 147.406C135.077 143.959 120.339 134.166 111.436 133.132L223.381 71.2233ZM206.348 245.487C204.268 247.306 201.806 248.634 199.144 249.374C186.204 265.25 166.024 286.037 145.841 290.932C143.058 291.602 140.222 292.026 137.365 292.2L137.369 292.197C93.6753 288.029 44.8666 244.519 58.7204 184.56C63.6854 163.125 88.1064 135.988 106.031 135.127C116.952 135.471 127.913 142.928 145.614 147.79C163.872 152.795 155.747 165.571 175 185.938C178.206 189.331 179.507 193.815 176.628 198.143C172.687 204.066 163.268 207.799 153.805 204.423C126.898 194.8 137.712 181.123 128.48 181.446C118.677 181.787 115.21 180.729 105.337 182.628C102.084 183.245 98.5902 188.514 95.7206 194.052C97.8895 190.689 100.238 188.12 102.451 187.696C112.194 185.834 115.717 186.829 125.26 186.528C140.342 208.337 138.413 238.246 119.244 257.416C117.612 259.047 115.877 260.509 114.089 261.883C120.322 259.841 126.191 256.388 131.143 251.436C136.57 246.007 140.45 239.229 142.384 231.8C146.448 229.723 150.97 228.701 155.532 228.827C160.095 228.953 164.553 230.223 168.497 232.521C170.145 233.475 171.626 234.609 173.004 235.834C171.208 231.387 167.984 227.665 163.839 225.253C160.8 223.481 157.37 222.489 153.855 222.364C150.34 222.239 146.848 222.987 143.692 224.539C144.282 217.82 143.341 211.053 140.939 204.75C143.518 206.381 146.711 207.986 150.899 209.484C154.524 210.825 158.449 211.138 162.24 210.389C167.796 216.725 176.581 218.737 184.616 216.221C180.115 215.457 171.269 210.242 170.519 206.675C183.511 199.888 184.432 193.308 175.35 179.948C175.44 179.858 201.87 157.212 201.87 157.212C204.342 155.087 214.379 149.561 223.912 159.094C232.063 167.246 228.797 181.283 219.441 189.291L213.465 194.406L193.194 211.753C191.114 213.517 188.744 214.909 186.191 215.867L183.208 218.49C175.637 225.167 174.589 236.238 180.886 243.682L181.026 243.842C185.624 249.294 192.814 251.099 199.331 249.081C195.65 248.357 192.16 246.508 189.561 243.435L189.407 243.248C183.124 235.817 184.232 224.646 191.81 217.97L213.014 199.274C215.06 197.476 225.143 194.566 231.126 201.33C237.589 208.634 235.12 220.105 227.539 226.785L206.348 245.487Z"/>
</mask>
<path d="M236.718 195.531L235.152 196.775L235.161 196.786L235.17 196.797L236.718 195.531ZM236.614 195.4L238.18 194.156L238.161 194.132L238.141 194.109L236.614 195.4ZM236.504 195.27L234.977 196.562L234.978 196.562L236.504 195.27ZM230.695 190.202L229.065 189.043L227.845 190.76L229.623 191.89L230.695 190.202ZM236.398 174.316L234.403 174.171L234.403 174.173L236.398 174.316ZM229.304 153.228L227.792 154.538L227.797 154.544L227.802 154.55L229.304 153.228ZM229.174 153.078L227.662 154.388L227.662 154.388L229.174 153.078ZM227.822 151.627L226.408 153.041L226.408 153.041L227.822 151.627ZM199.301 143.959L197.387 143.376L196.369 146.718L199.767 145.904L199.301 143.959ZM203.688 129.561L202.72 127.811L202.011 128.204L201.775 128.978L203.688 129.561ZM240.825 109.014L241.794 110.764L241.803 110.759L241.812 110.754L240.825 109.014ZM253.711 92.0106L251.772 91.521L251.77 91.5314L253.711 92.0106ZM250.024 69.0578L251.73 68.0129L251.728 68.0096L250.024 69.0578ZM249.918 68.8843L251.621 67.8361L251.597 67.7973L251.572 67.7597L249.918 68.8843ZM249.804 68.7174L248.101 69.7658L248.125 69.8045L248.15 69.842L249.804 68.7174ZM245.437 63.1819L244.013 64.5864L244.021 64.5946L245.437 63.1819ZM226.294 55.4242L224.381 54.8427L223.578 57.4849L226.338 57.4237L226.294 55.4242ZM228.059 49.615L226.163 48.9807L226.154 49.007L226.146 49.0336L228.059 49.615ZM211.046 14.0696L210.017 15.7846L210.143 15.8601L210.278 15.9165L211.046 14.0696ZM211.012 14.0496L212.041 12.3346L211.921 12.2627L211.793 12.2081L211.012 14.0496ZM210.422 13.7993L211.202 11.9578L211.18 11.9485L211.157 11.9396L210.422 13.7993ZM188.316 14.2097L189.143 16.0311L189.151 16.027L188.316 14.2097ZM174.559 29.4283L172.664 28.7894L172.662 28.7958L174.559 29.4283ZM174.513 29.5684L172.615 28.9359L172.601 28.9772L172.589 29.019L174.513 29.5684ZM174.472 29.7085L176.386 30.2916L176.391 30.2748L176.396 30.258L174.472 29.7085ZM156.448 88.8542L157.382 90.6225L158.118 90.2336L158.361 89.4372L156.448 88.8542ZM91.73 123.048L92.6417 124.828L92.653 124.823L92.6643 124.817L91.73 123.048ZM91.5932 123.118L90.6815 121.338L90.6285 121.365L90.5772 121.396L91.5932 123.118ZM91.463 123.195L92.4141 124.954L92.4469 124.937L92.479 124.918L91.463 123.195ZM90.2685 123.776L91.1262 125.582L91.1401 125.576L91.1539 125.569L90.2685 123.776ZM42.6544 192.698L40.6716 192.436L40.6716 192.436L42.6544 192.698ZM148.013 299.638L147.542 297.694L147.54 297.694L148.013 299.638ZM204.486 257.025L203.746 255.167L203.274 255.355L202.948 255.746L204.486 257.025ZM212.297 252.224L210.975 250.723L210.973 250.725L212.297 252.224ZM233.501 233.548L234.823 235.049L234.824 235.049L233.501 233.548ZM219.524 46.8256L217.631 46.1796L217.621 46.211L217.611 46.2428L219.524 46.8256ZM213.738 65.8179L214.706 67.5679L215.415 67.1757L215.651 66.4007L213.738 65.8179ZM175.83 86.7888L173.917 86.2058L172.478 90.9289L176.799 88.5388L175.83 86.7888ZM242.394 73.6991L240.878 75.0045L240.878 75.0047L242.394 73.6991ZM236.454 101.166L237.423 102.916L237.436 102.909L237.449 102.901L236.454 101.166ZM196.177 123.452L195.209 121.702L194.501 122.094L194.264 122.869L196.177 123.452ZM184.105 163.051L185.405 164.572L185.848 164.193L186.018 163.635L184.105 163.051ZM176.631 169.438L175.426 171.034L176.709 172.002L177.931 170.958L176.631 169.438ZM169.488 146.178L168.191 144.655L168.109 144.725L168.034 144.804L169.488 146.178ZM196.171 123.459L197.467 124.981L195.203 121.708L196.171 123.459ZM152.871 147.406L152.491 149.369L153.203 149.507L153.839 149.156L152.871 147.406ZM111.436 133.132L110.468 131.381L105.012 134.399L111.205 135.118L111.436 133.132ZM199.144 249.374L198.608 247.447L197.995 247.618L197.593 248.111L199.144 249.374ZM145.841 290.932L146.308 292.877L146.312 292.876L145.841 290.932ZM137.365 292.2L135.951 290.786L132.219 294.518L137.487 294.197L137.365 292.2ZM137.369 292.197L138.783 293.611L141.785 290.609L137.559 290.206L137.369 292.197ZM58.7204 184.56L56.772 184.108L56.7717 184.109L58.7204 184.56ZM106.031 135.127L106.094 133.128L106.014 133.125L105.935 133.129L106.031 135.127ZM145.614 147.79L145.084 149.718L145.085 149.718L145.614 147.79ZM175 185.938L176.453 184.564L176.453 184.564L175 185.938ZM176.628 198.143L174.963 197.035L174.963 197.035L176.628 198.143ZM153.805 204.423L153.132 206.306L153.133 206.306L153.805 204.423ZM128.48 181.446L128.549 183.445L128.55 183.445L128.48 181.446ZM105.337 182.628L105.71 184.593L105.715 184.592L105.337 182.628ZM95.7206 194.052L93.9448 193.132L97.4015 195.136L95.7206 194.052ZM102.451 187.696L102.075 185.732L102.074 185.732L102.451 187.696ZM125.26 186.528L126.905 185.391L126.286 184.495L125.197 184.529L125.26 186.528ZM114.089 261.883L112.87 260.298L114.712 263.784L114.089 261.883ZM131.143 251.436L132.557 252.85L132.557 252.85L131.143 251.436ZM142.384 231.8L141.474 230.019L140.674 230.427L140.448 231.296L142.384 231.8ZM168.497 232.521L167.49 234.249L167.494 234.252L168.497 232.521ZM173.004 235.834L171.676 237.329L174.859 235.085L173.004 235.834ZM163.839 225.253L162.831 226.981L162.833 226.982L163.839 225.253ZM143.692 224.539L141.699 224.364L141.389 227.901L144.575 226.334L143.692 224.539ZM140.939 204.75L142.008 203.06L136.931 199.848L139.07 205.462L140.939 204.75ZM150.899 209.484L151.593 207.609L151.583 207.605L151.573 207.601L150.899 209.484ZM162.24 210.389L163.744 209.07L162.984 208.203L161.853 208.427L162.24 210.389ZM184.616 216.221L185.214 218.13L184.951 214.249L184.616 216.221ZM170.519 206.675L169.593 204.902L168.249 205.604L168.561 207.087L170.519 206.675ZM175.35 179.948L173.936 178.534L172.766 179.704L173.696 181.073L175.35 179.948ZM201.87 157.212L203.171 158.731L203.174 158.729L201.87 157.212ZM219.441 189.291L218.14 187.772L218.14 187.772L219.441 189.291ZM213.465 194.406L214.765 195.926L214.765 195.925L213.465 194.406ZM193.194 211.753L194.488 213.279L194.495 213.273L193.194 211.753ZM186.191 215.867L185.488 213.995L185.145 214.124L184.87 214.365L186.191 215.867ZM183.208 218.49L181.887 216.988L181.885 216.99L183.208 218.49ZM180.886 243.682L179.359 244.973L179.369 244.986L179.38 244.999L180.886 243.682ZM181.026 243.842L182.555 242.553L182.543 242.539L182.531 242.525L181.026 243.842ZM199.331 249.081L199.922 250.991L199.717 247.118L199.331 249.081ZM189.561 243.435L188.015 244.704L188.025 244.716L188.034 244.727L189.561 243.435ZM189.407 243.248L190.953 241.979L190.944 241.968L190.935 241.957L189.407 243.248ZM191.81 217.97L193.132 219.47L193.132 219.47L191.81 217.97ZM213.014 199.274L211.694 197.772L211.692 197.774L213.014 199.274ZM231.126 201.33L229.628 202.655L229.628 202.655L231.126 201.33ZM227.539 226.785L226.216 225.284L226.215 225.285L227.539 226.785ZM238.356 194.374L238.266 194.264L235.17 196.797L235.26 196.907L238.356 194.374ZM238.284 194.286L238.18 194.156L235.049 196.645L235.152 196.775L238.284 194.286ZM238.141 194.109L238.031 193.978L234.978 196.562L235.088 196.692L238.141 194.109ZM238.031 193.979C236.232 191.851 234.12 190.008 231.768 188.514L229.623 191.89C231.633 193.168 233.439 194.743 234.977 196.562L238.031 193.979ZM232.326 191.36C235.858 186.389 237.957 180.542 238.392 174.459L234.403 174.173C234.019 179.525 232.173 184.669 229.065 189.043L232.326 191.36ZM238.392 174.461C238.689 170.386 238.171 166.293 236.868 162.421L233.077 163.696C234.21 167.065 234.661 170.626 234.403 174.171L238.392 174.461ZM236.868 162.421C235.566 158.548 233.505 154.974 230.805 151.907L227.802 154.55C230.151 157.218 231.944 160.327 233.077 163.696L236.868 162.421ZM230.815 151.918L230.685 151.768L227.662 154.388L227.792 154.538L230.815 151.918ZM230.685 151.769C230.221 151.233 229.738 150.714 229.236 150.212L226.408 153.041C226.842 153.475 227.26 153.924 227.662 154.388L230.685 151.769ZM229.237 150.213C221.187 142.163 209.568 139.441 198.834 142.014L199.767 145.904C209.273 143.625 219.43 146.063 226.408 153.041L229.237 150.213ZM201.214 144.542L205.601 130.144L201.775 128.978L197.387 143.376L201.214 144.542ZM204.657 131.311L241.794 110.764L239.857 107.264L202.72 127.811L204.657 131.311ZM241.812 110.754C245.239 108.811 248.235 106.189 250.615 103.048L247.427 100.632C245.375 103.339 242.793 105.599 239.839 107.274L241.812 110.754ZM250.615 103.048C252.995 99.9081 254.709 96.3154 255.653 92.4899L251.77 91.5314C250.956 94.8288 249.478 97.9256 247.427 100.632L250.615 103.048ZM255.651 92.5003C257.713 84.3311 256.263 75.4119 251.73 68.0129L248.319 70.1026C252.315 76.6242 253.56 84.4417 251.772 91.521L255.651 92.5003ZM251.728 68.0096L251.621 67.8361L248.214 69.9325L248.321 70.106L251.728 68.0096ZM251.572 67.7597L251.458 67.5928L248.15 69.842L248.264 70.0089L251.572 67.7597ZM251.507 67.6691C250.19 65.5285 248.628 63.5486 246.852 61.7692L244.021 64.5946C245.577 66.1541 246.946 67.8895 248.101 69.7658L251.507 67.6691ZM246.86 61.7774C244.175 59.0549 240.962 56.9097 237.417 55.4733L235.915 59.1805C238.954 60.4122 241.71 62.2517 244.013 64.5864L246.86 61.7774ZM237.417 55.4733C233.873 54.037 230.073 53.3399 226.25 53.4247L226.338 57.4237C229.617 57.351 232.876 57.9488 235.915 59.1805L237.417 55.4733ZM228.208 56.0056L229.973 50.1965L226.146 49.0336L224.381 54.8427L228.208 56.0056ZM229.956 50.2494C233.524 39.5821 230.445 27.4173 222.193 19.1652L219.364 21.9936C226.608 29.237 229.221 39.8349 226.163 48.9807L229.956 50.2494ZM222.193 19.1652C219.201 16.1733 215.708 13.8411 211.813 12.2227L210.278 15.9165C213.691 17.3345 216.744 19.3733 219.364 21.9936L222.193 19.1652ZM212.075 12.3547L212.041 12.3346L209.983 15.7645L210.017 15.7846L212.075 12.3547ZM211.793 12.2081L211.202 11.9578L209.641 15.6408L210.232 15.8911L211.793 12.2081ZM211.157 11.9396C203.429 8.88169 194.802 9.02801 187.481 12.3924L189.151 16.027C195.437 13.1386 202.927 12.9846 209.686 15.6591L211.157 11.9396ZM187.49 12.3884C184.026 13.9598 180.923 16.2267 178.372 19.0481L181.34 21.7305C183.523 19.3159 186.178 17.3759 189.143 16.0311L187.49 12.3884ZM178.372 19.0481C175.822 21.8695 173.879 25.1853 172.664 28.7894L176.454 30.0671C177.494 26.9827 179.157 24.1451 181.34 21.7305L178.372 19.0481ZM172.662 28.7958L172.615 28.9359L176.41 30.2008L176.457 30.0607L172.662 28.7958ZM172.589 29.019L172.549 29.1591L176.396 30.258L176.436 30.1178L172.589 29.019ZM172.559 29.1255L154.535 88.2711L158.361 89.4372L176.386 30.2916L172.559 29.1255ZM155.514 87.0858L90.7957 121.28L92.6643 124.817L157.382 90.6225L155.514 87.0858ZM90.8183 121.268L90.6815 121.338L92.5049 124.898L92.6417 124.828L90.8183 121.268ZM90.5772 121.396L90.4471 121.472L92.479 124.918L92.6092 124.841L90.5772 121.396ZM90.512 121.436C90.2943 121.553 90.0406 121.658 89.3832 121.982L91.1539 125.569C91.5509 125.373 92.138 125.104 92.4141 124.954L90.512 121.436ZM89.4108 121.969C61.4674 135.234 45.0847 159.051 40.6716 192.436L44.6371 192.96C48.8927 160.766 64.542 138.203 91.1262 125.582L89.4108 121.969ZM40.6716 192.436C36.9152 220.872 48.3526 251.381 71.0766 274.105L73.905 271.277C51.9311 249.303 41.0663 219.992 44.6372 192.96L40.6716 192.436ZM71.0766 274.105C93.89 296.918 123.513 307.656 148.485 301.581L147.54 297.694C124.311 303.345 96.0497 293.421 73.905 271.277L71.0766 274.105ZM148.484 301.581C159.682 298.867 170.54 292.257 180.311 284.286C190.1 276.3 198.914 266.852 206.023 258.304L202.948 255.746C195.937 264.176 187.305 273.418 177.783 281.186C168.243 288.969 157.925 295.177 147.542 297.694L148.484 301.581ZM205.225 258.883C208.3 257.66 211.141 255.914 213.621 253.723L210.973 250.725C208.838 252.611 206.393 254.114 203.746 255.167L205.225 258.883ZM213.619 253.725L234.823 235.049L232.179 232.048L210.975 250.723L213.619 253.725ZM234.824 235.049C246.745 224.542 248.355 206.341 238.343 194.358L235.273 196.923C243.846 207.182 242.533 222.922 232.179 232.048L234.824 235.049ZM194.577 32.1274C195.419 29.368 196.747 27.6235 198.223 26.54C199.711 25.4476 201.488 24.9266 203.375 24.854C207.255 24.7047 211.207 26.4621 213.051 28.3066L215.88 25.4782C213.213 22.8115 208.165 20.6667 203.221 20.8569C200.697 20.9541 198.107 21.6632 195.856 23.3155C193.593 24.9768 191.809 27.4915 190.751 30.96L194.577 32.1274ZM213.051 28.3066C217.804 33.0586 219.742 39.9956 217.631 46.1796L221.417 47.4716C224.078 39.675 221.578 31.1766 215.88 25.4782L213.051 28.3066ZM217.611 46.2428L211.825 65.235L215.651 66.4007L221.437 47.4084L217.611 46.2428ZM212.77 64.0678L174.862 85.0387L176.799 88.5388L214.706 67.5679L212.77 64.0678ZM177.744 87.3717L194.577 32.1266L190.751 30.9607L173.917 86.2058L177.744 87.3717ZM224.376 72.9584C228.898 70.3663 236.227 69.6065 240.878 75.0045L243.909 72.3936C237.509 64.9655 227.807 66.3812 222.387 69.4881L224.376 72.9584ZM240.878 75.0047C244.158 78.8097 244.929 83.6495 243.797 88.2278C242.659 92.8345 239.615 97.0485 235.459 99.4315L237.449 102.901C242.603 99.9457 246.294 94.7954 247.68 89.1877C249.074 83.5517 248.16 77.3271 243.909 72.3934L240.878 75.0047ZM235.486 99.4165L195.209 121.702L197.146 125.202L237.423 102.916L235.486 99.4165ZM194.264 122.869L182.192 162.468L186.018 163.635L198.091 124.035L194.264 122.869ZM182.806 161.531L175.332 167.917L177.931 170.958L185.405 164.572L182.806 161.531ZM177.836 167.842C171.311 162.917 168.496 159.064 167.774 156.007C167.102 153.165 168.144 150.509 170.941 147.552L168.034 144.804C164.772 148.253 162.772 152.235 163.881 156.927C164.938 161.401 168.725 165.976 175.426 171.034L177.836 167.842ZM170.784 147.701L197.467 124.981L194.874 121.936L168.191 144.655L170.784 147.701ZM195.203 121.708L151.903 145.656L153.839 149.156L197.139 125.209L195.203 121.708ZM153.251 145.442C144.581 143.763 136.618 140.53 129.607 137.526C126.13 136.036 122.839 134.582 119.88 133.446C116.931 132.315 114.15 131.434 111.667 131.145L111.205 135.118C113.173 135.347 115.573 136.078 118.447 137.181C121.312 138.28 124.487 139.684 128.031 141.202C135.063 144.215 143.366 147.602 152.491 149.369L153.251 145.442ZM112.404 134.882L224.349 72.9734L222.413 69.4731L110.468 131.381L112.404 134.882ZM205.031 243.981C203.177 245.603 200.982 246.787 198.608 247.447L199.679 251.301C202.63 250.481 205.359 249.009 207.664 246.993L205.031 243.981ZM197.593 248.111C191.167 255.995 182.974 265.06 173.915 272.746C164.83 280.454 155.021 286.648 145.369 288.989L146.312 292.876C156.843 290.322 167.217 283.675 176.503 275.796C185.814 267.896 194.18 258.629 200.694 250.638L197.593 248.111ZM145.373 288.988C142.704 289.63 139.984 290.037 137.244 290.204L137.487 294.197C140.461 294.015 143.412 293.573 146.308 292.877L145.373 288.988ZM138.78 293.614L138.783 293.611L135.955 290.783L135.951 290.786L138.78 293.614ZM137.559 290.206C116.254 288.174 93.6017 276.521 77.9933 258.011C62.4267 239.551 53.8975 214.317 60.6691 185.01L56.7717 184.109C49.6895 214.762 58.6378 241.263 74.9354 260.59C91.1912 279.867 114.79 292.052 137.179 294.188L137.559 290.206ZM60.6688 185.011C63.0487 174.737 70.1681 162.897 78.9754 153.495C83.3636 148.811 88.1162 144.792 92.8212 141.904C97.5452 139.005 102.102 137.318 106.127 137.125L105.935 133.129C100.998 133.366 95.78 135.395 90.7287 138.495C85.6583 141.607 80.6344 145.874 76.0562 150.761C66.9306 160.502 59.3571 172.948 56.772 184.108L60.6688 185.011ZM105.968 137.126C111.034 137.285 116.202 139.099 122.54 141.622C128.806 144.117 136.099 147.251 145.084 149.718L146.143 145.861C137.427 143.467 130.39 140.442 124.019 137.906C117.722 135.399 111.949 133.312 106.094 133.128L105.968 137.126ZM145.085 149.718C149.389 150.898 151.953 152.481 153.75 154.374C155.585 156.308 156.768 158.712 158.088 161.873C160.734 168.211 163.635 176.827 173.546 187.312L176.453 184.564C167.111 174.681 164.449 166.726 161.779 160.332C160.442 157.128 159.029 154.126 156.651 151.621C154.235 149.075 150.967 147.183 146.142 145.861L145.085 149.718ZM173.546 187.311C174.951 188.798 175.844 190.426 176.126 192.036C176.401 193.601 176.127 195.286 174.963 197.035L178.293 199.251C180.009 196.672 180.524 193.951 180.066 191.344C179.616 188.782 178.255 186.47 176.453 184.564L173.546 187.311ZM174.963 197.035C171.567 202.139 163.138 205.629 154.477 202.539L153.133 206.306C163.398 209.969 173.808 205.992 178.293 199.251L174.963 197.035ZM154.479 202.54C147.928 200.197 143.807 197.654 141.135 195.243C138.487 192.853 137.188 190.525 136.374 188.468C135.957 187.414 135.665 186.43 135.369 185.455C135.088 184.531 134.777 183.517 134.331 182.641C133.863 181.718 133.185 180.818 132.099 180.205C131.034 179.603 129.791 179.399 128.41 179.448L128.55 183.445C129.477 183.413 129.916 183.566 130.132 183.687C130.327 183.798 130.529 183.988 130.765 184.453C131.025 184.963 131.243 185.633 131.542 186.618C131.826 187.553 132.166 188.704 132.655 189.941C133.655 192.466 135.275 195.341 138.455 198.212C141.612 201.062 146.229 203.837 153.132 206.306L154.479 202.54ZM128.411 179.448C118.99 179.775 115.021 178.729 104.959 180.664L105.715 184.592C115.399 182.729 118.363 183.799 128.549 183.445L128.411 179.448ZM104.964 180.663C102.561 181.119 100.479 183.136 98.8119 185.259C97.0608 187.489 95.4033 190.317 93.9448 193.132L97.4965 194.972C98.9075 192.249 100.432 189.673 101.958 187.73C103.568 185.68 104.86 184.754 105.71 184.593L104.964 180.663ZM97.4015 195.136C98.4424 193.522 99.481 192.172 100.471 191.198C101.493 190.194 102.288 189.763 102.827 189.66L102.074 185.732C100.401 186.052 98.9157 187.118 97.6673 188.346C96.388 189.603 95.1677 191.219 94.0398 192.969L97.4015 195.136ZM102.826 189.66C112.373 187.836 115.427 188.839 125.323 188.527L125.197 184.529C116.007 184.818 112.014 183.832 102.075 185.732L102.826 189.66ZM123.615 187.666C138.17 208.713 136.288 237.544 117.83 256.001L120.658 258.83C140.539 238.949 142.513 207.961 126.905 185.391L123.615 187.666ZM117.83 256.001C116.277 257.555 114.612 258.959 112.87 260.298L115.308 263.469C117.143 262.059 118.948 260.54 120.658 258.83L117.83 256.001ZM114.712 263.784C121.227 261.649 127.372 258.035 132.557 252.85L129.728 250.022C125.01 254.74 119.416 258.033 113.466 259.983L114.712 263.784ZM132.557 252.85C138.236 247.17 142.296 240.077 144.319 232.304L140.448 231.296C138.604 238.381 134.904 244.845 129.728 250.022L132.557 252.85ZM143.294 233.581C147.06 231.657 151.249 230.709 155.477 230.826L155.587 226.828C150.69 226.692 145.837 227.79 141.474 230.019L143.294 233.581ZM155.477 230.826C159.705 230.943 163.835 232.12 167.49 234.249L169.503 230.793C165.27 228.326 160.485 226.963 155.587 226.828L155.477 230.826ZM167.494 234.252C168.998 235.122 170.37 236.169 171.676 237.329L174.333 234.339C172.882 233.05 171.292 231.828 169.499 230.79L167.494 234.252ZM174.859 235.085C172.897 230.227 169.373 226.159 164.844 223.525L162.833 226.982C166.594 229.17 169.52 232.548 171.15 236.583L174.859 235.085ZM164.846 223.526C161.523 221.587 157.771 220.502 153.926 220.365L153.784 224.363C156.97 224.476 160.078 225.375 162.831 226.981L164.846 223.526ZM153.926 220.365C150.081 220.229 146.261 221.047 142.809 222.745L144.575 226.334C147.435 224.927 150.599 224.25 153.784 224.363L153.926 220.365ZM145.684 224.714C146.301 217.693 145.317 210.624 142.808 204.038L139.07 205.462C141.364 211.483 142.263 217.946 141.699 224.364L145.684 224.714ZM139.87 206.44C142.584 208.157 145.911 209.824 150.225 211.368L151.573 207.601C147.512 206.148 144.453 204.606 142.008 203.06L139.87 206.44ZM150.205 211.36C154.176 212.828 158.475 213.171 162.628 212.351L161.853 208.427C158.423 209.104 154.872 208.821 151.593 207.609L150.205 211.36ZM160.736 211.707C166.87 218.702 176.507 220.856 185.214 218.13L184.018 214.313C176.655 216.618 168.722 214.748 163.744 209.07L160.736 211.707ZM184.951 214.249C183.077 213.931 180.003 212.593 177.243 210.817C175.887 209.945 174.693 209.021 173.817 208.148C172.885 207.218 172.54 206.568 172.476 206.263L168.561 207.087C168.873 208.566 169.914 209.904 170.993 210.98C172.128 212.112 173.567 213.208 175.079 214.181C178.055 216.096 181.654 217.747 184.281 218.193L184.951 214.249ZM171.445 208.448C178.03 205.008 182.293 201.272 183.183 196.117C184.05 191.098 181.55 185.511 177.004 178.824L173.696 181.073C178.232 187.745 179.813 192.128 179.242 195.436C178.694 198.608 176 201.555 169.593 204.902L171.445 208.448ZM176.764 181.363C176.699 181.428 176.63 181.485 176.742 181.389C176.793 181.344 176.868 181.279 176.967 181.194C177.165 181.024 177.453 180.777 177.818 180.463C178.549 179.836 179.589 178.944 180.834 177.876C183.324 175.74 186.636 172.901 189.945 170.065C193.254 167.229 196.561 164.395 199.04 162.271C200.28 161.209 201.312 160.324 202.035 159.704C202.397 159.395 202.681 159.151 202.874 158.985C202.971 158.902 203.045 158.839 203.095 158.796C203.12 158.775 203.139 158.758 203.152 158.747C203.158 158.742 203.163 158.738 203.166 158.735C203.168 158.734 203.169 158.733 203.17 158.732C203.17 158.732 203.171 158.731 203.171 158.731C203.171 158.731 203.171 158.731 201.87 157.212C200.568 155.694 200.568 155.694 200.568 155.694C200.568 155.694 200.568 155.694 200.567 155.695C200.566 155.695 200.565 155.696 200.564 155.698C200.56 155.7 200.556 155.705 200.549 155.71C200.537 155.721 200.518 155.737 200.493 155.759C200.443 155.801 200.368 155.865 200.272 155.948C200.078 156.114 199.794 156.357 199.433 156.667C198.71 157.286 197.677 158.171 196.437 159.233C193.958 161.358 190.652 164.192 187.342 167.028C184.033 169.864 180.72 172.704 178.23 174.84C176.985 175.908 175.944 176.8 175.213 177.428C174.847 177.742 174.558 177.991 174.358 178.162C174.259 178.248 174.181 178.315 174.126 178.362C174.1 178.385 174.077 178.405 174.06 178.419C174.052 178.426 174.043 178.435 174.034 178.442C174.03 178.446 174.022 178.452 174.014 178.46C174.01 178.464 174 178.473 173.994 178.478C173.984 178.487 173.955 178.515 173.936 178.534L176.764 181.363ZM203.174 158.729C204.157 157.883 206.92 156.172 210.469 155.769C213.898 155.379 218.179 156.19 222.498 160.508L225.326 157.68C220.112 152.466 214.608 151.273 210.017 151.794C205.547 152.302 202.055 154.416 200.566 155.696L203.174 158.729ZM222.498 160.508C226.023 164.034 227.15 168.878 226.271 173.902C225.388 178.949 222.484 184.053 218.14 187.772L220.741 190.81C225.753 186.521 229.16 180.602 230.212 174.591C231.267 168.556 229.952 162.306 225.326 157.68L222.498 160.508ZM218.14 187.772L212.164 192.887L214.765 195.925L220.741 190.81L218.14 187.772ZM212.164 192.887L191.894 210.234L194.495 213.273L214.765 195.926L212.164 192.887ZM191.901 210.228C189.996 211.843 187.826 213.117 185.488 213.995L186.894 217.74C189.663 216.7 192.231 215.191 194.488 213.279L191.901 210.228ZM184.87 214.365L181.887 216.988L184.528 219.992L187.511 217.369L184.87 214.365ZM181.885 216.99C173.553 224.338 172.312 236.643 179.359 244.973L182.413 242.39C176.866 235.833 177.721 225.996 184.531 219.99L181.885 216.99ZM179.38 244.999L179.521 245.159L182.531 242.525L182.391 242.365L179.38 244.999ZM179.497 245.131C184.644 251.235 192.686 253.233 199.922 250.991L198.739 247.17C192.942 248.966 186.603 247.353 182.555 242.553L179.497 245.131ZM199.717 247.118C196.433 246.472 193.364 244.834 191.088 242.143L188.034 244.727C190.957 248.182 194.867 250.241 198.945 251.043L199.717 247.118ZM191.106 242.166L190.953 241.979L187.862 244.518L188.015 244.704L191.106 242.166ZM190.935 241.957C185.409 235.421 186.307 225.484 193.132 219.47L190.488 216.469C182.157 223.809 180.84 236.213 187.88 244.539L190.935 241.957ZM193.132 219.47L214.337 200.774L211.692 197.774L190.487 216.469L193.132 219.47ZM214.335 200.776C214.539 200.596 215.244 200.18 216.469 199.792C217.633 199.424 219.089 199.138 220.654 199.09C223.788 198.995 227.147 199.851 229.628 202.655L232.624 200.005C229.121 196.045 224.447 194.974 220.533 195.092C218.573 195.152 216.751 195.507 215.262 195.979C213.834 196.431 212.512 197.053 211.694 197.772L214.335 200.776ZM229.628 202.655C235.119 208.861 233.266 219.073 226.216 225.284L228.861 228.286C236.973 221.137 240.058 208.406 232.623 200.004L229.628 202.655ZM226.215 225.285L205.024 243.987L207.671 246.987L228.862 228.285L226.215 225.285Z" fill="#FF0000" mask="url(#path-1-inside-1)"/>
</svg>
