<svg width="354" height="354" viewBox="0 0 354 354" fill="none" xmlns="http://www.w3.org/2000/svg">
<g filter="url(#filter0_f)">
<mask id="path-1-inside-1" fill="white">
<path d="M246.808 205.641L246.718 205.531L246.615 205.4L246.505 205.27C244.836 203.297 242.877 201.588 240.696 200.202C244.016 195.529 245.988 190.034 246.398 184.316C246.675 180.506 246.191 176.679 244.973 173.058C243.755 169.438 241.828 166.096 239.304 163.228L239.174 163.078C238.741 162.578 238.29 162.094 237.823 161.627C230.309 154.113 219.421 151.533 209.301 153.959L213.689 139.561L250.826 119.014C254.017 117.205 256.805 114.764 259.021 111.84C261.237 108.917 262.833 105.572 263.712 102.011C265.637 94.3864 264.289 86.018 260.025 79.0578L259.918 78.8843L259.805 78.7174C258.568 76.709 257.103 74.8513 255.437 73.1819C252.943 70.6533 249.958 68.6609 246.667 67.3269C243.375 65.9929 239.845 65.3454 236.295 65.4242L238.06 59.615C241.373 49.7085 238.527 38.3272 230.779 30.5794C227.973 27.7733 224.7 25.5878 221.046 24.0696L221.013 24.0496L220.422 23.7993C213.178 20.9331 205.12 21.0833 198.317 24.2097C195.103 25.6679 192.223 27.7713 189.857 30.3893C187.49 33.0073 185.687 36.084 184.56 39.4283L184.513 39.5684L184.473 39.7085L166.448 98.8542L101.73 133.048L101.594 133.118L101.463 133.195C101.216 133.329 100.796 133.515 100.269 133.776C73.005 146.719 56.9891 169.908 52.6548 202.698C48.9911 230.432 60.1422 260.342 82.4912 282.691C104.97 305.17 133.912 315.5 158.013 309.638C179.595 304.406 200.365 284.002 214.486 267.025C217.347 265.887 219.99 264.263 222.297 262.224L243.502 243.548C254.639 233.732 256.101 216.762 246.808 205.641ZM202.664 41.5437C206.465 29.0879 219.955 32.3812 224.466 36.8924C229.691 42.1176 231.91 49.8353 229.524 56.8256L223.739 75.8179L185.831 96.7888L202.664 41.5437ZM233.382 81.2233C238.353 78.3737 246.868 77.286 252.394 83.6991C259.925 92.4378 255.764 105.828 246.455 111.166L206.178 133.452L194.106 173.051L186.632 179.438C173.405 169.455 173.428 162.584 179.488 156.178L206.171 133.459L162.871 157.406C145.077 153.959 130.339 144.166 121.437 143.132L233.382 81.2233ZM216.348 255.487C214.268 257.306 211.806 258.634 209.144 259.374C196.205 275.25 176.024 296.037 155.841 300.932C153.058 301.602 150.222 302.026 147.366 302.2L147.369 302.197C103.676 298.029 54.8669 254.519 68.7208 194.56C73.6857 173.125 98.1067 145.988 116.031 145.127C126.952 145.471 137.913 152.928 155.614 157.79C173.872 162.795 165.748 175.571 185 195.938C188.207 199.331 189.508 203.815 186.628 208.143C182.688 214.066 173.268 217.799 163.806 214.423C136.899 204.8 147.713 191.123 138.48 191.446C128.677 191.787 125.21 190.729 115.337 192.628C112.084 193.245 108.591 198.514 105.721 204.052C107.89 200.689 110.239 198.12 112.451 197.696C122.194 195.834 125.718 196.829 135.26 196.528C150.342 218.337 148.414 248.246 129.244 267.416C127.613 269.047 125.878 270.509 124.089 271.883C130.322 269.841 136.191 266.388 141.143 261.436C146.57 256.007 150.451 249.229 152.384 241.8C156.449 239.723 160.97 238.701 165.533 238.827C170.095 238.953 174.553 240.223 178.497 242.521C180.145 243.475 181.627 244.609 183.005 245.834C181.209 241.387 177.984 237.665 173.839 235.253C170.8 233.481 167.371 232.489 163.855 232.364C160.34 232.239 156.848 232.987 153.692 234.539C154.282 227.82 153.341 221.053 150.939 214.75C153.519 216.381 156.712 217.986 160.899 219.484C164.524 220.825 168.449 221.138 172.241 220.389C177.796 226.725 186.582 228.737 194.616 226.221C190.115 225.457 181.27 220.242 180.519 216.675C193.512 209.888 194.433 203.308 185.35 189.948C185.44 189.858 211.87 167.212 211.87 167.212C214.343 165.087 224.379 159.561 233.912 169.094C242.064 177.246 238.797 191.283 229.441 199.291L223.465 204.406L203.195 221.753C201.114 223.517 198.745 224.909 196.191 225.867L193.208 228.49C185.637 235.167 184.59 246.238 190.886 253.682L191.026 253.842C195.624 259.294 202.814 261.099 209.331 259.081C205.651 258.357 202.16 256.508 199.561 253.435L199.408 253.248C193.125 245.817 194.233 234.646 201.81 227.97L223.015 209.274C225.06 207.476 235.143 204.566 241.126 211.33C247.589 218.634 245.12 230.105 237.539 236.785L216.348 255.487Z"/>
</mask>
<path d="M246.718 205.531L245.153 206.775L245.161 206.786L245.17 206.797L246.718 205.531ZM246.615 205.4L248.18 204.156L248.161 204.132L248.142 204.109L246.615 205.4ZM246.505 205.27L244.978 206.562L244.978 206.562L246.505 205.27ZM240.696 200.202L239.065 199.043L237.845 200.76L239.623 201.89L240.696 200.202ZM246.398 184.316L244.403 184.171L244.403 184.173L246.398 184.316ZM239.304 163.228L237.793 164.538L237.798 164.544L237.803 164.55L239.304 163.228ZM239.174 163.078L237.662 164.388L237.663 164.388L239.174 163.078ZM237.823 161.627L236.408 163.041L236.409 163.041L237.823 161.627ZM209.301 153.959L207.388 153.376L206.369 156.718L209.767 155.904L209.301 153.959ZM213.689 139.561L212.72 137.811L212.012 138.204L211.776 138.978L213.689 139.561ZM250.826 119.014L251.794 120.764L251.803 120.759L251.812 120.754L250.826 119.014ZM263.712 102.011L261.773 101.521L261.77 101.531L263.712 102.011ZM260.025 79.0578L261.73 78.0129L261.728 78.0096L260.025 79.0578ZM259.918 78.8843L261.621 77.8361L261.598 77.7973L261.572 77.7597L259.918 78.8843ZM259.805 78.7174L258.101 79.7658L258.125 79.8045L258.151 79.842L259.805 78.7174ZM255.437 73.1819L254.013 74.5864L254.021 74.5946L255.437 73.1819ZM236.295 65.4242L234.381 64.8427L233.578 67.4849L236.339 67.4237L236.295 65.4242ZM238.06 59.615L236.163 58.9807L236.154 59.007L236.146 59.0336L238.06 59.615ZM221.046 24.0696L220.017 25.7846L220.143 25.8601L220.279 25.9165L221.046 24.0696ZM221.013 24.0496L222.042 22.3346L221.922 22.2627L221.793 22.2081L221.013 24.0496ZM220.422 23.7993L221.202 21.9578L221.18 21.9485L221.158 21.9396L220.422 23.7993ZM198.317 24.2097L199.143 26.0311L199.152 26.027L198.317 24.2097ZM184.56 39.4283L182.664 38.7894L182.662 38.7958L184.56 39.4283ZM184.513 39.5684L182.616 38.9359L182.602 38.9772L182.59 39.019L184.513 39.5684ZM184.473 39.7085L186.386 40.2916L186.391 40.2748L186.396 40.258L184.473 39.7085ZM166.448 98.8542L167.383 100.623L168.119 100.234L168.361 99.4372L166.448 98.8542ZM101.73 133.048L102.642 134.828L102.653 134.823L102.665 134.817L101.73 133.048ZM101.594 133.118L100.682 131.338L100.629 131.365L100.578 131.396L101.594 133.118ZM101.463 133.195L102.414 134.954L102.447 134.937L102.479 134.918L101.463 133.195ZM100.269 133.776L101.127 135.582L101.14 135.576L101.154 135.569L100.269 133.776ZM52.6548 202.698L50.672 202.436L50.672 202.436L52.6548 202.698ZM158.013 309.638L157.542 307.694L157.54 307.694L158.013 309.638ZM214.486 267.025L213.747 265.167L213.274 265.355L212.948 265.746L214.486 267.025ZM222.297 262.224L220.975 260.723L220.973 260.725L222.297 262.224ZM243.502 243.548L244.824 245.049L244.824 245.049L243.502 243.548ZM229.524 56.8256L227.632 56.1796L227.621 56.211L227.611 56.2428L229.524 56.8256ZM223.739 75.8179L224.707 77.5679L225.416 77.1757L225.652 76.4007L223.739 75.8179ZM185.831 96.7888L183.918 96.2058L182.479 100.929L186.799 98.5388L185.831 96.7888ZM252.394 83.6991L250.879 85.0045L250.879 85.0047L252.394 83.6991ZM246.455 111.166L247.423 112.916L247.436 112.909L247.45 112.901L246.455 111.166ZM206.178 133.452L205.21 131.702L204.501 132.094L204.265 132.869L206.178 133.452ZM194.106 173.051L195.405 174.572L195.849 174.193L196.019 173.635L194.106 173.051ZM186.632 179.438L185.427 181.034L186.709 182.002L187.931 180.958L186.632 179.438ZM179.488 156.178L178.191 154.655L178.109 154.725L178.035 154.804L179.488 156.178ZM206.171 133.459L207.468 134.981L205.203 131.708L206.171 133.459ZM162.871 157.406L162.491 159.369L163.204 159.507L163.839 159.156L162.871 157.406ZM121.437 143.132L120.469 141.381L115.013 144.399L121.206 145.118L121.437 143.132ZM209.144 259.374L208.608 257.447L207.996 257.618L207.594 258.111L209.144 259.374ZM155.841 300.932L156.309 302.877L156.312 302.876L155.841 300.932ZM147.366 302.2L145.952 300.786L142.22 304.518L147.488 304.197L147.366 302.2ZM147.369 302.197L148.783 303.611L151.785 300.609L147.559 300.206L147.369 302.197ZM68.7208 194.56L66.7724 194.108L66.7721 194.109L68.7208 194.56ZM116.031 145.127L116.094 143.128L116.015 143.125L115.935 143.129L116.031 145.127ZM155.614 157.79L155.084 159.718L155.085 159.718L155.614 157.79ZM185 195.938L186.454 194.564L186.453 194.564L185 195.938ZM186.628 208.143L184.963 207.035L184.963 207.035L186.628 208.143ZM163.806 214.423L163.132 216.306L163.133 216.306L163.806 214.423ZM138.48 191.446L138.55 193.445L138.55 193.445L138.48 191.446ZM115.337 192.628L115.71 194.593L115.715 194.592L115.337 192.628ZM105.721 204.052L103.945 203.132L107.402 205.136L105.721 204.052ZM112.451 197.696L112.076 195.732L112.075 195.732L112.451 197.696ZM135.26 196.528L136.905 195.391L136.286 194.495L135.198 194.529L135.26 196.528ZM124.089 271.883L122.87 270.298L124.712 273.784L124.089 271.883ZM141.143 261.436L142.557 262.85L142.557 262.85L141.143 261.436ZM152.384 241.8L151.474 240.019L150.675 240.427L150.449 241.296L152.384 241.8ZM178.497 242.521L177.49 244.249L177.495 244.252L178.497 242.521ZM183.005 245.834L181.676 247.329L184.859 245.085L183.005 245.834ZM173.839 235.253L172.831 236.981L172.833 236.982L173.839 235.253ZM153.692 234.539L151.7 234.364L151.389 237.901L154.575 236.334L153.692 234.539ZM150.939 214.75L152.009 213.06L146.932 209.848L149.07 215.462L150.939 214.75ZM160.899 219.484L161.593 217.609L161.583 217.605L161.573 217.601L160.899 219.484ZM172.241 220.389L173.744 219.07L172.984 218.203L171.853 218.427L172.241 220.389ZM194.616 226.221L195.214 228.13L194.951 224.249L194.616 226.221ZM180.519 216.675L179.593 214.902L178.25 215.604L178.562 217.087L180.519 216.675ZM185.35 189.948L183.936 188.534L182.766 189.704L183.696 191.073L185.35 189.948ZM211.87 167.212L213.171 168.731L213.174 168.729L211.87 167.212ZM229.441 199.291L228.14 197.772L228.14 197.772L229.441 199.291ZM223.465 204.406L224.765 205.926L224.766 205.925L223.465 204.406ZM203.195 221.753L204.488 223.279L204.495 223.273L203.195 221.753ZM196.191 225.867L195.488 223.995L195.146 224.124L194.871 224.365L196.191 225.867ZM193.208 228.49L191.888 226.988L191.885 226.99L193.208 228.49ZM190.886 253.682L189.359 254.973L189.37 254.986L189.381 254.999L190.886 253.682ZM191.026 253.842L192.555 252.553L192.543 252.539L192.531 252.525L191.026 253.842ZM209.331 259.081L209.923 260.991L209.717 257.118L209.331 259.081ZM199.561 253.435L198.016 254.704L198.025 254.716L198.034 254.727L199.561 253.435ZM199.408 253.248L200.953 251.979L200.944 251.968L200.935 251.957L199.408 253.248ZM201.81 227.97L203.132 229.47L203.133 229.47L201.81 227.97ZM223.015 209.274L221.694 207.772L221.692 207.774L223.015 209.274ZM241.126 211.33L239.628 212.655L239.628 212.655L241.126 211.33ZM237.539 236.785L236.217 235.284L236.216 235.285L237.539 236.785ZM248.356 204.374L248.266 204.264L245.17 206.797L245.26 206.907L248.356 204.374ZM248.284 204.286L248.18 204.156L245.049 206.645L245.153 206.775L248.284 204.286ZM248.142 204.109L248.031 203.978L244.978 206.562L245.088 206.692L248.142 204.109ZM248.032 203.979C246.232 201.851 244.12 200.008 241.768 198.514L239.623 201.89C241.634 203.168 243.439 204.743 244.978 206.562L248.032 203.979ZM242.326 201.36C245.858 196.389 247.957 190.542 248.393 184.459L244.403 184.173C244.02 189.525 242.173 194.669 239.065 199.043L242.326 201.36ZM248.393 184.461C248.689 180.386 248.171 176.293 246.869 172.421L243.077 173.696C244.211 177.065 244.661 180.626 244.403 184.171L248.393 184.461ZM246.869 172.421C245.566 168.548 243.505 164.974 240.806 161.907L237.803 164.55C240.151 167.218 241.944 170.327 243.077 173.696L246.869 172.421ZM240.816 161.918L240.685 161.768L237.663 164.388L237.793 164.538L240.816 161.918ZM240.686 161.769C240.221 161.233 239.738 160.714 239.237 160.212L236.409 163.041C236.843 163.475 237.261 163.924 237.662 164.388L240.686 161.769ZM239.237 160.213C231.187 152.163 219.569 149.441 208.835 152.014L209.767 155.904C219.273 153.625 229.43 156.063 236.408 163.041L239.237 160.213ZM211.214 154.542L215.602 140.144L211.776 138.978L207.388 153.376L211.214 154.542ZM214.657 141.311L251.794 120.764L249.857 117.264L212.72 137.811L214.657 141.311ZM251.812 120.754C255.24 118.811 258.235 116.189 260.615 113.048L257.427 110.632C255.376 113.339 252.794 115.599 249.839 117.274L251.812 120.754ZM260.615 113.048C262.995 109.908 264.709 106.315 265.654 102.49L261.77 101.531C260.956 104.829 259.478 107.926 257.427 110.632L260.615 113.048ZM265.651 102.5C267.714 94.3311 266.263 85.4119 261.73 78.0129L258.319 80.1026C262.315 86.6242 263.56 94.4417 261.773 101.521L265.651 102.5ZM261.728 78.0096L261.621 77.8361L258.215 79.9325L258.322 80.106L261.728 78.0096ZM261.572 77.7597L261.458 77.5928L258.151 79.842L258.264 80.0089L261.572 77.7597ZM261.508 77.6691C260.19 75.5285 258.628 73.5486 256.853 71.7692L254.021 74.5946C255.577 76.1541 256.947 77.8895 258.101 79.7658L261.508 77.6691ZM256.861 71.7774C254.175 69.0549 250.962 66.9097 247.418 65.4733L245.915 69.1805C248.955 70.4122 251.71 72.2517 254.013 74.5864L256.861 71.7774ZM247.418 65.4733C243.874 64.037 240.073 63.3399 236.25 63.4247L236.339 67.4237C239.617 67.351 242.876 67.9488 245.915 69.1805L247.418 65.4733ZM238.208 66.0056L239.973 60.1965L236.146 59.0336L234.381 64.8427L238.208 66.0056ZM239.956 60.2494C243.524 49.5821 240.445 37.4173 232.193 29.1652L229.365 31.9936C236.608 39.237 239.222 49.8349 236.163 58.9807L239.956 60.2494ZM232.193 29.1652C229.201 26.1733 225.708 23.8411 221.813 22.2227L220.279 25.9165C223.691 27.3345 226.744 29.3733 229.365 31.9936L232.193 29.1652ZM222.075 22.3547L222.042 22.3346L219.984 25.7645L220.017 25.7846L222.075 22.3547ZM221.793 22.2081L221.202 21.9578L219.642 25.6408L220.232 25.8911L221.793 22.2081ZM221.158 21.9396C213.429 18.8817 204.803 19.028 197.482 22.3924L199.152 26.027C205.437 23.1386 212.927 22.9846 219.686 25.6591L221.158 21.9396ZM197.49 22.3884C194.027 23.9598 190.923 26.2267 188.373 29.0481L191.34 31.7305C193.523 29.3159 196.179 27.3759 199.143 26.0311L197.49 22.3884ZM188.373 29.0481C185.822 31.8695 183.879 35.1853 182.664 38.7894L186.455 40.0671C187.495 36.9827 189.157 34.1451 191.34 31.7305L188.373 29.0481ZM182.662 38.7958L182.616 38.9359L186.41 40.2008L186.457 40.0607L182.662 38.7958ZM182.59 39.019L182.55 39.1591L186.396 40.258L186.436 40.1178L182.59 39.019ZM182.56 39.1255L164.535 98.2711L168.361 99.4372L186.386 40.2916L182.56 39.1255ZM165.514 97.0858L100.796 131.28L102.665 134.817L167.383 100.623L165.514 97.0858ZM100.819 131.268L100.682 131.338L102.505 134.898L102.642 134.828L100.819 131.268ZM100.578 131.396L100.447 131.472L102.479 134.918L102.61 134.841L100.578 131.396ZM100.512 131.436C100.295 131.553 100.041 131.658 99.3836 131.982L101.154 135.569C101.551 135.373 102.138 135.104 102.414 134.954L100.512 131.436ZM99.4112 131.969C71.4678 145.234 55.085 169.051 50.672 202.436L54.6375 202.96C58.8931 170.766 74.5423 148.203 101.127 135.582L99.4112 131.969ZM50.672 202.436C46.9156 230.872 58.353 261.381 81.077 284.105L83.9054 281.277C61.9315 259.303 51.0666 229.992 54.6375 202.96L50.672 202.436ZM81.077 284.105C103.89 306.918 133.514 317.656 158.486 311.581L157.54 307.694C134.311 313.345 106.05 303.421 83.9054 281.277L81.077 284.105ZM158.484 311.581C169.683 308.867 180.541 302.257 190.312 294.286C200.1 286.3 208.914 276.852 216.024 268.304L212.948 265.746C205.937 274.176 197.306 283.418 187.783 291.186C178.243 298.969 167.925 305.177 157.542 307.694L158.484 311.581ZM215.225 268.883C218.301 267.66 221.141 265.914 223.621 263.723L220.973 260.725C218.838 262.611 216.394 264.114 213.747 265.167L215.225 268.883ZM223.619 263.725L244.824 245.049L242.18 242.048L220.975 260.723L223.619 263.725ZM244.824 245.049C256.746 234.542 258.356 216.341 248.343 204.358L245.274 206.923C253.846 217.182 252.533 232.922 242.179 242.048L244.824 245.049ZM204.577 42.1274C205.419 39.368 206.747 37.6235 208.223 36.54C209.711 35.4476 211.488 34.9266 213.376 34.854C217.255 34.7047 221.207 36.4621 223.052 38.3066L225.88 35.4782C223.214 32.8115 218.165 30.6667 213.222 30.8569C210.697 30.9541 208.107 31.6632 205.856 33.3155C203.593 34.9768 201.81 37.4915 200.751 40.96L204.577 42.1274ZM223.052 38.3066C227.804 43.0586 229.742 49.9956 227.632 56.1796L231.417 57.4716C234.078 49.675 231.579 41.1766 225.88 35.4782L223.052 38.3066ZM227.611 56.2428L221.825 75.235L225.652 76.4007L231.438 57.4084L227.611 56.2428ZM222.771 74.0678L184.863 95.0387L186.799 98.5388L224.707 77.5679L222.771 74.0678ZM187.744 97.3717L204.577 42.1266L200.751 40.9607L183.918 96.2058L187.744 97.3717ZM234.376 82.9584C238.899 80.3663 246.228 79.6065 250.879 85.0045L253.909 82.3936C247.509 74.9655 237.808 76.3812 232.387 79.4881L234.376 82.9584ZM250.879 85.0047C254.158 88.8097 254.93 93.6495 253.798 98.2278C252.659 102.835 249.615 107.049 245.46 109.431L247.45 112.901C252.604 109.946 256.295 104.795 257.681 99.1877C259.074 93.5517 258.161 87.3271 253.909 82.3934L250.879 85.0047ZM245.486 109.416L205.21 131.702L207.146 135.202L247.423 112.916L245.486 109.416ZM204.265 132.869L192.193 172.468L196.019 173.635L208.091 134.035L204.265 132.869ZM192.807 171.531L185.332 177.917L187.931 180.958L195.405 174.572L192.807 171.531ZM187.837 177.842C181.312 172.917 178.497 169.064 177.774 166.007C177.103 163.165 178.144 160.509 180.941 157.552L178.035 154.804C174.772 158.253 172.772 162.235 173.881 166.927C174.939 171.401 178.725 175.976 185.427 181.034L187.837 177.842ZM180.784 157.701L207.468 134.981L204.875 131.936L178.191 154.655L180.784 157.701ZM205.203 131.708L161.903 155.656L163.839 159.156L207.139 135.209L205.203 131.708ZM163.252 155.442C154.582 153.763 146.618 150.53 139.607 147.526C136.13 146.036 132.84 144.582 129.881 143.446C126.932 142.315 124.151 141.434 121.667 141.145L121.206 145.118C123.174 145.347 125.573 146.078 128.448 147.181C131.312 148.28 134.487 149.684 138.032 151.202C145.064 154.215 153.367 157.602 162.491 159.369L163.252 155.442ZM122.405 144.882L234.35 82.9734L232.414 79.4731L120.469 141.381L122.405 144.882ZM215.031 253.981C213.177 255.603 210.982 256.787 208.608 257.447L209.68 261.301C212.63 260.481 215.359 259.009 217.664 256.993L215.031 253.981ZM207.594 258.111C201.168 265.995 192.974 275.06 183.915 282.746C174.83 290.454 165.022 296.648 155.37 298.989L156.312 302.876C166.844 300.322 177.217 293.675 186.503 285.796C195.815 277.896 204.181 268.629 210.694 260.638L207.594 258.111ZM155.373 298.988C152.704 299.63 149.984 300.037 147.244 300.204L147.488 304.197C150.461 304.015 153.413 303.573 156.309 302.877L155.373 298.988ZM148.78 303.614L148.783 303.611L145.955 300.783L145.952 300.786L148.78 303.614ZM147.559 300.206C126.254 298.174 103.602 286.521 87.9937 268.011C72.427 249.551 63.8979 224.317 70.6694 195.01L66.7721 194.109C59.6899 224.762 68.6381 251.263 84.9357 270.59C101.192 289.867 124.791 302.052 147.179 304.188L147.559 300.206ZM70.6692 195.011C73.049 184.737 80.1685 172.897 88.9758 163.495C93.364 158.811 98.1165 154.792 102.822 151.904C107.546 149.005 112.102 147.318 116.127 147.125L115.935 143.129C110.998 143.366 105.78 145.395 100.729 148.495C95.6587 151.607 90.6348 155.874 86.0566 160.761C76.931 170.502 69.3575 182.948 66.7724 194.108L70.6692 195.011ZM115.968 147.126C121.034 147.285 126.202 149.099 132.54 151.622C138.806 154.117 146.1 157.251 155.084 159.718L156.144 155.861C147.428 153.467 140.39 150.442 134.02 147.906C127.722 145.399 121.949 143.312 116.094 143.128L115.968 147.126ZM155.085 159.718C159.39 160.898 161.953 162.481 163.75 164.374C165.586 166.308 166.769 168.712 168.089 171.873C170.734 178.211 173.636 186.827 183.547 197.312L186.453 194.564C177.112 184.681 174.449 176.726 171.78 170.332C170.442 167.128 169.03 164.126 166.652 161.621C164.235 159.075 160.967 157.183 156.143 155.861L155.085 159.718ZM183.546 197.311C184.952 198.798 185.844 200.426 186.127 202.036C186.401 203.601 186.127 205.286 184.963 207.035L188.293 209.251C190.009 206.672 190.524 203.951 190.066 201.344C189.617 198.782 188.255 196.47 186.454 194.564L183.546 197.311ZM184.963 207.035C181.567 212.139 173.138 215.629 164.478 212.539L163.133 216.306C173.399 219.969 183.808 215.992 188.293 209.251L184.963 207.035ZM164.479 212.54C157.928 210.197 153.807 207.654 151.136 205.243C148.488 202.853 147.189 200.525 146.375 198.468C145.957 197.414 145.666 196.43 145.37 195.455C145.089 194.531 144.777 193.517 144.332 192.641C143.863 191.718 143.185 190.818 142.099 190.205C141.034 189.603 139.792 189.399 138.41 189.448L138.55 193.445C139.477 193.413 139.916 193.566 140.132 193.687C140.327 193.798 140.529 193.988 140.766 194.453C141.025 194.963 141.243 195.633 141.542 196.618C141.827 197.553 142.166 198.704 142.656 199.941C143.655 202.466 145.275 205.341 148.455 208.212C151.612 211.062 156.23 213.837 163.132 216.306L164.479 212.54ZM138.411 189.448C128.991 189.775 125.021 188.729 114.96 190.664L115.715 194.592C125.4 192.729 128.364 193.799 138.55 193.445L138.411 189.448ZM114.964 190.663C112.561 191.119 110.48 193.136 108.812 195.259C107.061 197.489 105.404 200.317 103.945 203.132L107.497 204.972C108.908 202.249 110.432 199.673 111.958 197.73C113.568 195.68 114.86 194.754 115.71 194.593L114.964 190.663ZM107.402 205.136C108.443 203.522 109.481 202.172 110.472 201.198C111.493 200.194 112.289 199.763 112.827 199.66L112.075 195.732C110.401 196.052 108.916 197.118 107.668 198.346C106.388 199.603 105.168 201.219 104.04 202.969L107.402 205.136ZM112.826 199.66C122.373 197.836 125.427 198.839 135.323 198.527L135.198 194.529C126.008 194.818 122.015 193.832 112.076 195.732L112.826 199.66ZM133.615 197.666C148.171 218.713 146.288 247.544 127.83 266.001L130.659 268.83C150.539 248.949 152.514 217.961 136.905 195.391L133.615 197.666ZM127.83 266.001C126.277 267.555 124.612 268.959 122.87 270.298L125.308 273.469C127.143 272.059 128.949 270.54 130.659 268.83L127.83 266.001ZM124.712 273.784C131.228 271.649 137.372 268.035 142.557 262.85L139.729 260.022C135.01 264.74 129.417 268.033 123.467 269.983L124.712 273.784ZM142.557 262.85C148.236 257.17 152.296 250.077 154.32 242.304L150.449 241.296C148.605 248.381 144.904 254.845 139.729 260.022L142.557 262.85ZM153.294 243.581C157.06 241.657 161.25 240.709 165.477 240.826L165.588 236.828C160.69 236.692 155.837 237.79 151.474 240.019L153.294 243.581ZM165.477 240.826C169.705 240.943 173.836 242.12 177.49 244.249L179.504 240.793C175.27 238.326 170.485 236.963 165.588 236.828L165.477 240.826ZM177.495 244.252C178.998 245.122 180.371 246.169 181.676 247.329L184.333 244.339C182.883 243.05 181.292 241.828 179.499 240.79L177.495 244.252ZM184.859 245.085C182.897 240.227 179.374 236.159 174.845 233.525L172.833 236.982C176.595 239.17 179.521 242.548 181.15 246.583L184.859 245.085ZM174.847 233.526C171.523 231.587 167.771 230.502 163.926 230.365L163.784 234.363C166.97 234.476 170.078 235.375 172.831 236.981L174.847 233.526ZM163.926 230.365C160.081 230.229 156.262 231.047 152.809 232.745L154.575 236.334C157.435 234.927 160.599 234.25 163.784 234.363L163.926 230.365ZM155.684 234.714C156.301 227.693 155.318 220.624 152.808 214.038L149.07 215.462C151.364 221.483 152.263 227.946 151.7 234.364L155.684 234.714ZM149.87 216.44C152.584 218.157 155.912 219.824 160.226 221.368L161.573 217.601C157.512 216.148 154.453 214.606 152.009 213.06L149.87 216.44ZM160.206 221.36C164.176 222.828 168.475 223.171 172.628 222.351L171.853 218.427C168.423 219.104 164.872 218.821 161.593 217.609L160.206 221.36ZM170.737 221.707C176.87 228.702 186.508 230.856 195.214 228.13L194.019 224.313C186.655 226.618 178.722 224.748 173.744 219.07L170.737 221.707ZM194.951 224.249C193.077 223.931 190.003 222.593 187.243 220.817C185.888 219.945 184.693 219.021 183.818 218.148C182.886 217.218 182.54 216.568 182.476 216.263L178.562 217.087C178.873 218.566 179.915 219.904 180.993 220.98C182.128 222.112 183.567 223.208 185.079 224.181C188.055 226.096 191.654 227.747 194.282 228.193L194.951 224.249ZM181.445 218.448C188.03 215.008 192.293 211.272 193.184 206.117C194.051 201.098 191.551 195.511 187.004 188.824L183.696 191.073C188.232 197.745 189.813 202.128 189.242 205.436C188.694 208.608 186 211.555 179.593 214.902L181.445 218.448ZM186.765 191.363C186.699 191.428 186.631 191.485 186.742 191.389C186.793 191.344 186.869 191.279 186.967 191.194C187.165 191.024 187.453 190.777 187.819 190.463C188.549 189.836 189.589 188.944 190.834 187.876C193.324 185.74 196.636 182.901 199.946 180.065C203.255 177.229 206.561 174.395 209.04 172.271C210.28 171.209 211.313 170.324 212.036 169.704C212.397 169.395 212.681 169.151 212.875 168.985C212.971 168.902 213.046 168.839 213.096 168.796C213.121 168.775 213.14 168.758 213.152 168.747C213.159 168.742 213.163 168.738 213.167 168.735C213.168 168.734 213.169 168.733 213.17 168.732C213.171 168.732 213.171 168.731 213.171 168.731C213.171 168.731 213.171 168.731 211.87 167.212C210.569 165.694 210.569 165.694 210.569 165.694C210.568 165.694 210.568 165.694 210.568 165.695C210.567 165.695 210.566 165.696 210.564 165.698C210.561 165.7 210.556 165.705 210.55 165.71C210.537 165.721 210.518 165.737 210.493 165.759C210.443 165.801 210.369 165.865 210.272 165.948C210.078 166.114 209.794 166.357 209.433 166.667C208.71 167.286 207.677 168.171 206.438 169.233C203.959 171.358 200.652 174.192 197.343 177.028C194.033 179.864 190.721 182.704 188.23 184.84C186.985 185.908 185.945 186.8 185.213 187.428C184.847 187.742 184.558 187.991 184.359 188.162C184.259 188.248 184.181 188.315 184.127 188.362C184.1 188.385 184.077 188.405 184.06 188.419C184.052 188.426 184.043 188.435 184.034 188.442C184.03 188.446 184.023 188.452 184.015 188.46C184.01 188.464 184 188.473 183.994 188.478C183.984 188.487 183.955 188.515 183.936 188.534L186.765 191.363ZM213.174 168.729C214.157 167.883 216.92 166.172 220.469 165.769C223.898 165.379 228.179 166.19 232.498 170.508L235.326 167.68C230.112 162.466 224.609 161.273 220.018 161.794C215.547 162.302 212.055 164.416 210.566 165.696L213.174 168.729ZM232.498 170.508C236.023 174.034 237.151 178.878 236.272 183.902C235.389 188.949 232.485 194.053 228.14 197.772L230.742 200.81C235.753 196.521 239.16 190.602 240.212 184.591C241.268 178.556 239.953 172.306 235.326 167.68L232.498 170.508ZM228.14 197.772L222.165 202.887L224.766 205.925L230.742 200.81L228.14 197.772ZM222.165 202.887L201.894 220.234L204.495 223.273L224.765 205.926L222.165 202.887ZM201.902 220.228C199.996 221.843 197.827 223.117 195.488 223.995L196.894 227.74C199.663 226.7 202.232 225.191 204.488 223.279L201.902 220.228ZM194.871 224.365L191.888 226.988L194.529 229.992L197.512 227.369L194.871 224.365ZM191.885 226.99C183.554 234.338 182.313 246.643 189.359 254.973L192.413 252.39C186.866 245.833 187.721 235.996 194.531 229.99L191.885 226.99ZM189.381 254.999L189.521 255.159L192.531 252.525L192.391 252.365L189.381 254.999ZM189.497 255.131C194.644 261.235 202.686 263.233 209.923 260.991L208.739 257.17C202.943 258.966 196.604 257.353 192.555 252.553L189.497 255.131ZM209.717 257.118C206.434 256.472 203.364 254.834 201.088 252.143L198.034 254.727C200.957 258.182 204.868 260.241 208.945 261.043L209.717 257.118ZM201.107 252.166L200.953 251.979L197.862 254.518L198.016 254.704L201.107 252.166ZM200.935 251.957C195.409 245.421 196.307 235.484 203.132 229.47L200.488 226.469C192.158 233.809 190.841 246.213 197.88 254.539L200.935 251.957ZM203.133 229.47L224.337 210.774L221.692 207.774L200.487 226.469L203.133 229.47ZM224.335 210.776C224.54 210.596 225.245 210.18 226.47 209.792C227.633 209.424 229.09 209.138 230.654 209.09C233.789 208.995 237.148 209.851 239.628 212.655L242.624 210.005C239.122 206.045 234.448 204.974 230.533 205.092C228.574 205.152 226.752 205.507 225.262 205.979C223.834 206.431 222.512 207.053 221.694 207.772L224.335 210.776ZM239.628 212.655C245.12 218.861 243.266 229.073 236.217 235.284L238.861 238.286C246.974 231.137 250.058 218.406 242.624 210.004L239.628 212.655ZM236.216 235.285L215.025 253.987L217.671 256.987L238.862 238.285L236.216 235.285Z" fill="white" mask="url(#path-1-inside-1)"/>
</g>
<defs>
<filter id="filter0_f" x="0" y="0" width="353.664" height="353.664" filterUnits="userSpaceOnUse" color-interpolation-filters="sRGB">
<feFlood flood-opacity="0" result="BackgroundImageFix"/>
<feBlend mode="normal" in="SourceGraphic" in2="BackgroundImageFix" result="shape"/>
<feGaussianBlur stdDeviation="5" result="effect1_foregroundBlur"/>
</filter>
</defs>
</svg>
