<svg width="802" height="832" viewBox="0 0 802 832" fill="none" xmlns="http://www.w3.org/2000/svg">
<g filter="url(#filter0_d)">
<path d="M110.522 4H58C30.3858 4 8 26.3858 8 54V110.105" stroke="#FF0000" stroke-width="8" stroke-linecap="round"/>
<path d="M691.478 4.00037H744C771.614 4.00037 794 26.3861 794 54.0004V110.106" stroke="#FF0000" stroke-width="8" stroke-linecap="round"/>
<path d="M110.522 820H58C30.3858 820 8 797.614 8 770V713.895" stroke="#FF0000" stroke-width="8" stroke-linecap="round"/>
<path d="M691.478 820H744C771.614 820 794 797.614 794 770V713.895" stroke="#FF0000" stroke-width="8" stroke-linecap="round"/>
</g>
<path opacity="0.5" d="M630.953 83.125H627.141V92H623.391V69.25H630.578C631.745 69.2604 632.818 69.4115 633.797 69.7031C634.786 69.9844 635.641 70.4115 636.359 70.9844C637.078 71.5469 637.635 72.2552 638.031 73.1094C638.427 73.9635 638.625 74.9635 638.625 76.1094C638.625 76.8802 638.521 77.5833 638.312 78.2188C638.115 78.8438 637.833 79.4115 637.469 79.9219C637.104 80.4323 636.667 80.8802 636.156 81.2656C635.646 81.651 635.083 81.9792 634.469 82.25L639.281 91.8125V92H635.281L630.953 83.125ZM627.141 80.0938H630.594C631.219 80.0938 631.792 80.0052 632.312 79.8281C632.833 79.651 633.281 79.401 633.656 79.0781C634.042 78.7448 634.339 78.3438 634.547 77.875C634.755 77.3958 634.859 76.849 634.859 76.2344C634.859 75.599 634.76 75.0365 634.562 74.5469C634.365 74.0573 634.078 73.6458 633.703 73.3125C633.339 72.9792 632.891 72.7292 632.359 72.5625C631.828 72.3854 631.234 72.2917 630.578 72.2812H627.141V80.0938ZM655.875 81.7969H646.516V88.9375H657.469V92H642.75V69.25H657.359V72.3438H646.516V78.7656H655.875V81.7969ZM677.125 85.0156C677.021 86.1094 676.76 87.1094 676.344 88.0156C675.927 88.9115 675.375 89.6823 674.688 90.3281C674 90.9635 673.188 91.4583 672.25 91.8125C671.323 92.1562 670.286 92.3281 669.141 92.3281C667.755 92.3281 666.547 92.0625 665.516 91.5312C664.484 90.9896 663.625 90.2604 662.938 89.3438C662.25 88.4271 661.734 87.3542 661.391 86.125C661.047 84.8958 660.87 83.5833 660.859 82.1875V79.0781C660.87 77.6927 661.052 76.3854 661.406 75.1562C661.76 73.9167 662.281 72.8385 662.969 71.9219C663.667 70.9948 664.531 70.2656 665.562 69.7344C666.594 69.1927 667.792 68.9219 669.156 68.9219C670.354 68.9219 671.422 69.099 672.359 69.4531C673.297 69.8073 674.099 70.3073 674.766 70.9531C675.432 71.599 675.964 72.3854 676.359 73.3125C676.755 74.2396 677.01 75.2708 677.125 76.4062H673.375C673.312 75.7396 673.182 75.1354 672.984 74.5938C672.797 74.0417 672.536 73.5729 672.203 73.1875C671.87 72.7917 671.448 72.4896 670.938 72.2812C670.438 72.0729 669.844 71.9688 669.156 71.9688C668.312 71.9688 667.604 72.1615 667.031 72.5469C666.458 72.9323 665.995 73.4531 665.641 74.1094C665.286 74.7552 665.031 75.5052 664.875 76.3594C664.729 77.2135 664.656 78.1094 664.656 79.0469V82.1875C664.656 83.1667 664.729 84.0885 664.875 84.9531C665.031 85.8073 665.281 86.5573 665.625 87.2031C665.969 87.849 666.427 88.3594 667 88.7344C667.573 89.1094 668.286 89.2969 669.141 89.2969C670.453 89.2969 671.453 88.9271 672.141 88.1875C672.828 87.4375 673.234 86.3802 673.359 85.0156H677.125Z" fill="#FF0000"/>
<circle cx="714.5" cy="78.5" r="22.5" fill="#FF0000"/>
<path opacity="0.6" d="M64.8164 708V690.938H68.7656C69.9531 690.953 71.0117 691.156 71.9414 691.547C72.8789 691.93 73.668 692.469 74.3086 693.164C74.957 693.852 75.4492 694.68 75.7852 695.648C76.1289 696.609 76.3047 697.676 76.3125 698.848V700.102C76.3047 701.273 76.1289 702.344 75.7852 703.312C75.4492 704.273 74.957 705.102 74.3086 705.797C73.668 706.484 72.8789 707.023 71.9414 707.414C71.0117 707.797 69.9531 707.992 68.7656 708H64.8164ZM67.0195 692.719V706.23H68.7656C69.6875 706.223 70.4844 706.062 71.1562 705.75C71.8281 705.43 72.3828 704.996 72.8203 704.449C73.2656 703.902 73.5938 703.258 73.8047 702.516C74.0234 701.773 74.1367 700.969 74.1445 700.102V698.824C74.1367 697.957 74.0234 697.156 73.8047 696.422C73.5859 695.68 73.2578 695.039 72.8203 694.5C72.3828 693.953 71.8281 693.523 71.1562 693.211C70.4844 692.898 69.6875 692.734 68.7656 692.719H67.0195ZM91.0308 700.453C91.023 701.062 90.9683 701.68 90.8667 702.305C90.773 702.922 90.6245 703.52 90.4214 704.098C90.2183 704.676 89.9566 705.215 89.6362 705.715C89.3237 706.215 88.9487 706.652 88.5112 707.027C88.0737 707.402 87.5698 707.699 86.9995 707.918C86.437 708.129 85.8042 708.234 85.1011 708.234C84.398 708.234 83.7612 708.129 83.1909 707.918C82.6284 707.699 82.1284 707.402 81.6909 707.027C81.2534 706.652 80.8745 706.215 80.5542 705.715C80.2339 705.207 79.9683 704.664 79.7573 704.086C79.5542 703.508 79.4019 702.91 79.3003 702.293C79.1987 701.676 79.1441 701.062 79.1362 700.453V698.508C79.1441 697.898 79.1948 697.285 79.2886 696.668C79.3902 696.043 79.5425 695.441 79.7456 694.863C79.9566 694.285 80.2183 693.746 80.5308 693.246C80.8511 692.738 81.23 692.297 81.6675 691.922C82.105 691.539 82.605 691.242 83.1675 691.031C83.7378 690.812 84.3745 690.703 85.0777 690.703C85.7808 690.703 86.4175 690.812 86.9878 691.031C87.5581 691.242 88.062 691.535 88.4995 691.91C88.937 692.285 89.312 692.727 89.6245 693.234C89.9448 693.734 90.2066 694.273 90.4097 694.852C90.6206 695.43 90.773 696.031 90.8667 696.656C90.9683 697.281 91.023 697.898 91.0308 698.508V700.453ZM88.8862 698.484C88.8784 698.078 88.8511 697.656 88.8042 697.219C88.7573 696.773 88.6753 696.336 88.5581 695.906C88.4487 695.469 88.3003 695.055 88.1128 694.664C87.9253 694.266 87.6909 693.918 87.4097 693.621C87.1284 693.316 86.7964 693.078 86.4136 692.906C86.0308 692.727 85.5855 692.637 85.0777 692.637C84.5777 692.637 84.1362 692.727 83.7534 692.906C83.3706 693.086 83.0386 693.328 82.7573 693.633C82.4761 693.93 82.2417 694.277 82.0542 694.676C81.8667 695.066 81.7144 695.48 81.5972 695.918C81.4878 696.348 81.4058 696.785 81.3511 697.23C81.3042 697.668 81.2769 698.086 81.2691 698.484V700.453C81.2769 700.852 81.3042 701.273 81.3511 701.719C81.4058 702.164 81.4917 702.605 81.6089 703.043C81.7261 703.473 81.8784 703.887 82.0659 704.285C82.2534 704.684 82.4878 705.035 82.7691 705.34C83.0503 705.637 83.3823 705.875 83.7652 706.055C84.148 706.234 84.5933 706.324 85.1011 706.324C85.6089 706.324 86.0542 706.234 86.437 706.055C86.8277 705.875 87.1597 705.637 87.4331 705.34C87.7144 705.035 87.9448 704.688 88.1245 704.297C88.312 703.898 88.4605 703.484 88.5698 703.055C88.687 702.617 88.7652 702.176 88.8042 701.73C88.8511 701.285 88.8784 700.859 88.8862 700.453V698.484ZM120.409 708H118.206L111.585 695.25L111.549 708H109.358V690.938H111.561L118.182 703.664L118.217 690.938H120.409V708ZM135.713 700.453C135.705 701.062 135.65 701.68 135.549 702.305C135.455 702.922 135.307 703.52 135.104 704.098C134.9 704.676 134.639 705.215 134.318 705.715C134.006 706.215 133.631 706.652 133.193 707.027C132.756 707.402 132.252 707.699 131.682 707.918C131.119 708.129 130.486 708.234 129.783 708.234C129.08 708.234 128.443 708.129 127.873 707.918C127.311 707.699 126.811 707.402 126.373 707.027C125.936 706.652 125.557 706.215 125.236 705.715C124.916 705.207 124.65 704.664 124.44 704.086C124.236 703.508 124.084 702.91 123.982 702.293C123.881 701.676 123.826 701.062 123.818 700.453V698.508C123.826 697.898 123.877 697.285 123.971 696.668C124.072 696.043 124.225 695.441 124.428 694.863C124.639 694.285 124.9 693.746 125.213 693.246C125.533 692.738 125.912 692.297 126.35 691.922C126.787 691.539 127.287 691.242 127.85 691.031C128.42 690.812 129.057 690.703 129.76 690.703C130.463 690.703 131.1 690.812 131.67 691.031C132.24 691.242 132.744 691.535 133.182 691.91C133.619 692.285 133.994 692.727 134.307 693.234C134.627 693.734 134.889 694.273 135.092 694.852C135.303 695.43 135.455 696.031 135.549 696.656C135.65 697.281 135.705 697.898 135.713 698.508V700.453ZM133.568 698.484C133.561 698.078 133.533 697.656 133.486 697.219C133.44 696.773 133.357 696.336 133.24 695.906C133.131 695.469 132.982 695.055 132.795 694.664C132.607 694.266 132.373 693.918 132.092 693.621C131.811 693.316 131.479 693.078 131.096 692.906C130.713 692.727 130.268 692.637 129.76 692.637C129.26 692.637 128.818 692.727 128.436 692.906C128.053 693.086 127.721 693.328 127.44 693.633C127.158 693.93 126.924 694.277 126.736 694.676C126.549 695.066 126.397 695.48 126.279 695.918C126.17 696.348 126.088 696.785 126.033 697.23C125.986 697.668 125.959 698.086 125.951 698.484V700.453C125.959 700.852 125.986 701.273 126.033 701.719C126.088 702.164 126.174 702.605 126.291 703.043C126.408 703.473 126.561 703.887 126.748 704.285C126.936 704.684 127.17 705.035 127.451 705.34C127.732 705.637 128.065 705.875 128.447 706.055C128.83 706.234 129.275 706.324 129.783 706.324C130.291 706.324 130.736 706.234 131.119 706.055C131.51 705.875 131.842 705.637 132.115 705.34C132.397 705.035 132.627 704.688 132.807 704.297C132.994 703.898 133.143 703.484 133.252 703.055C133.369 702.617 133.447 702.176 133.486 701.73C133.533 701.285 133.561 700.859 133.568 700.453V698.484ZM151.017 692.789H145.744V708H143.634V692.789H138.361V690.938H151.017V692.789ZM172.532 708V696.996H169.04V695.32H172.532V694.43C172.532 693.617 172.649 692.906 172.883 692.297C173.126 691.68 173.462 691.164 173.891 690.75C174.329 690.336 174.852 690.023 175.462 689.812C176.071 689.602 176.751 689.496 177.501 689.496C178.016 689.496 178.516 689.539 179.001 689.625C179.493 689.711 179.997 689.82 180.512 689.953L180.255 691.746C179.934 691.637 179.559 691.543 179.13 691.465C178.708 691.379 178.255 691.336 177.77 691.336C176.755 691.344 175.989 691.602 175.473 692.109C174.965 692.617 174.712 693.391 174.712 694.43V695.32H179.598V696.996H174.712V708H172.532ZM183.582 701.543C183.582 700.629 183.715 699.781 183.981 699C184.246 698.211 184.625 697.527 185.117 696.949C185.617 696.371 186.223 695.918 186.934 695.59C187.645 695.254 188.445 695.086 189.336 695.086C190.235 695.086 191.039 695.254 191.75 695.59C192.469 695.918 193.074 696.371 193.567 696.949C194.067 697.527 194.449 698.211 194.715 699C194.981 699.781 195.113 700.629 195.113 701.543V701.801C195.113 702.715 194.981 703.562 194.715 704.344C194.449 705.125 194.067 705.805 193.567 706.383C193.074 706.961 192.473 707.414 191.762 707.742C191.051 708.07 190.25 708.234 189.36 708.234C188.461 708.234 187.652 708.07 186.934 707.742C186.223 707.414 185.617 706.961 185.117 706.383C184.625 705.805 184.246 705.125 183.981 704.344C183.715 703.562 183.582 702.715 183.582 701.801V701.543ZM185.75 701.801C185.75 702.426 185.824 703.023 185.973 703.594C186.121 704.156 186.344 704.652 186.641 705.082C186.945 705.512 187.324 705.852 187.777 706.102C188.231 706.352 188.758 706.477 189.36 706.477C189.953 706.477 190.473 706.352 190.918 706.102C191.371 705.852 191.746 705.512 192.043 705.082C192.348 704.652 192.574 704.156 192.723 703.594C192.871 703.023 192.945 702.426 192.945 701.801V701.543C192.945 700.926 192.867 700.336 192.711 699.773C192.563 699.203 192.336 698.703 192.031 698.273C191.735 697.844 191.36 697.504 190.906 697.254C190.461 696.996 189.938 696.867 189.336 696.867C188.735 696.867 188.211 696.996 187.766 697.254C187.32 697.504 186.945 697.844 186.641 698.273C186.344 698.703 186.121 699.203 185.973 699.773C185.824 700.336 185.75 700.926 185.75 701.543V701.801ZM207.394 695.086C207.597 695.086 207.808 695.094 208.027 695.109C208.246 695.117 208.453 695.137 208.648 695.168C208.851 695.191 209.035 695.223 209.199 695.262C209.371 695.301 209.511 695.344 209.621 695.391L209.328 697.512C208.906 697.418 208.504 697.352 208.121 697.312C207.746 697.266 207.351 697.242 206.937 697.242C205.922 697.242 205.097 697.473 204.465 697.934C203.84 698.395 203.379 699.039 203.082 699.867V708H200.902V695.32H202.965L203.07 697.336C203.586 696.641 204.203 696.094 204.922 695.695C205.648 695.289 206.472 695.086 207.394 695.086ZM213.581 701.555C213.581 700.609 213.695 699.742 213.921 698.953C214.155 698.156 214.491 697.473 214.929 696.902C215.366 696.332 215.898 695.887 216.523 695.566C217.148 695.246 217.855 695.086 218.644 695.086C219.425 695.086 220.109 695.227 220.695 695.508C221.288 695.781 221.792 696.18 222.206 696.703L222.312 695.32H224.28V707.73C224.28 708.566 224.148 709.309 223.882 709.957C223.624 710.605 223.257 711.156 222.78 711.609C222.312 712.062 221.749 712.406 221.093 712.641C220.437 712.875 219.71 712.992 218.913 712.992C218.585 712.992 218.21 712.953 217.788 712.875C217.366 712.805 216.937 712.684 216.499 712.512C216.07 712.348 215.652 712.125 215.245 711.844C214.847 711.562 214.503 711.215 214.214 710.801L215.339 709.5C215.605 709.82 215.878 710.09 216.159 710.309C216.441 710.535 216.726 710.715 217.015 710.848C217.304 710.98 217.593 711.074 217.882 711.129C218.171 711.191 218.46 711.223 218.749 711.223C219.265 711.223 219.73 711.148 220.144 711C220.558 710.852 220.909 710.633 221.198 710.344C221.495 710.062 221.722 709.711 221.878 709.289C222.034 708.867 222.113 708.383 222.113 707.836V706.746C221.691 707.23 221.191 707.602 220.613 707.859C220.042 708.109 219.378 708.234 218.62 708.234C217.847 708.234 217.148 708.07 216.523 707.742C215.898 707.414 215.366 706.961 214.929 706.383C214.499 705.805 214.167 705.125 213.933 704.344C213.698 703.555 213.581 702.707 213.581 701.801V701.555ZM215.749 701.801C215.749 702.418 215.812 703.004 215.937 703.559C216.07 704.113 216.273 704.602 216.546 705.023C216.827 705.445 217.183 705.781 217.613 706.031C218.042 706.273 218.558 706.395 219.159 706.395C219.534 706.395 219.87 706.352 220.167 706.266C220.472 706.172 220.741 706.043 220.976 705.879C221.218 705.715 221.433 705.52 221.62 705.293C221.808 705.066 221.972 704.816 222.113 704.543V698.73C221.972 698.465 221.808 698.223 221.62 698.004C221.433 697.785 221.218 697.598 220.976 697.441C220.734 697.277 220.464 697.152 220.167 697.066C219.87 696.973 219.542 696.926 219.183 696.926C218.573 696.926 218.05 697.051 217.613 697.301C217.183 697.551 216.827 697.891 216.546 698.32C216.273 698.742 216.07 699.234 215.937 699.797C215.812 700.352 215.749 700.938 215.749 701.555V701.801ZM234.475 708.234C233.585 708.234 232.764 708.082 232.014 707.777C231.272 707.473 230.635 707.047 230.104 706.5C229.573 705.953 229.159 705.305 228.862 704.555C228.565 703.805 228.417 702.988 228.417 702.105V701.613C228.417 700.59 228.581 699.676 228.909 698.871C229.237 698.059 229.671 697.375 230.21 696.82C230.757 696.258 231.374 695.828 232.061 695.531C232.757 695.234 233.467 695.086 234.194 695.086C235.108 695.086 235.905 695.246 236.585 695.566C237.272 695.879 237.842 696.316 238.296 696.879C238.749 697.434 239.085 698.09 239.303 698.848C239.53 699.605 239.643 700.426 239.643 701.309V702.281H230.585C230.608 702.859 230.717 703.402 230.913 703.91C231.116 704.418 231.389 704.863 231.733 705.246C232.085 705.621 232.503 705.918 232.987 706.137C233.471 706.355 234.007 706.465 234.592 706.465C235.366 706.465 236.053 706.309 236.655 705.996C237.257 705.684 237.757 705.27 238.155 704.754L239.479 705.785C239.268 706.105 239.003 706.414 238.682 706.711C238.37 707 238.007 707.258 237.592 707.484C237.178 707.711 236.71 707.891 236.186 708.023C235.663 708.164 235.092 708.234 234.475 708.234ZM234.194 696.867C233.757 696.867 233.342 696.949 232.952 697.113C232.561 697.27 232.21 697.504 231.897 697.816C231.585 698.121 231.319 698.5 231.1 698.953C230.889 699.398 230.741 699.914 230.655 700.5H237.475V700.336C237.452 699.914 237.37 699.496 237.229 699.082C237.096 698.668 236.897 698.297 236.632 697.969C236.366 697.641 236.03 697.375 235.624 697.172C235.225 696.969 234.749 696.867 234.194 696.867ZM248.901 692.25V695.32H253.729V696.996H248.901V703.887C248.901 704.379 248.963 704.785 249.088 705.105C249.213 705.426 249.385 705.684 249.604 705.879C249.822 706.066 250.072 706.199 250.354 706.277C250.643 706.355 250.947 706.395 251.268 706.395C251.502 706.395 251.744 706.383 251.994 706.359C252.244 706.328 252.487 706.293 252.721 706.254C252.963 706.215 253.186 706.176 253.389 706.137C253.6 706.09 253.772 706.051 253.905 706.02L254.209 707.555C254.03 707.664 253.811 707.762 253.553 707.848C253.295 707.926 253.014 707.992 252.709 708.047C252.405 708.109 252.08 708.156 251.737 708.188C251.401 708.219 251.065 708.234 250.729 708.234C250.166 708.234 249.639 708.156 249.147 708C248.662 707.836 248.24 707.582 247.881 707.238C247.522 706.887 247.237 706.438 247.026 705.891C246.822 705.336 246.721 704.668 246.721 703.887V696.996H243.393V695.32H246.721V692.25H248.901ZM278.689 692.25V695.32H283.517V696.996H278.689V703.887C278.689 704.379 278.751 704.785 278.876 705.105C279.001 705.426 279.173 705.684 279.392 705.879C279.611 706.066 279.861 706.199 280.142 706.277C280.431 706.355 280.736 706.395 281.056 706.395C281.29 706.395 281.533 706.383 281.783 706.359C282.033 706.328 282.275 706.293 282.509 706.254C282.751 706.215 282.974 706.176 283.177 706.137C283.388 706.09 283.56 706.051 283.693 706.02L283.997 707.555C283.818 707.664 283.599 707.762 283.341 707.848C283.083 707.926 282.802 707.992 282.497 708.047C282.193 708.109 281.868 708.156 281.525 708.188C281.189 708.219 280.853 708.234 280.517 708.234C279.954 708.234 279.427 708.156 278.935 708C278.45 707.836 278.029 707.582 277.669 707.238C277.31 706.887 277.025 706.438 276.814 705.891C276.611 705.336 276.509 704.668 276.509 703.887V696.996H273.181V695.32H276.509V692.25H278.689ZM287.841 701.543C287.841 700.629 287.973 699.781 288.239 699C288.505 698.211 288.884 697.527 289.376 696.949C289.876 696.371 290.481 695.918 291.192 695.59C291.903 695.254 292.704 695.086 293.595 695.086C294.493 695.086 295.298 695.254 296.009 695.59C296.727 695.918 297.333 696.371 297.825 696.949C298.325 697.527 298.708 698.211 298.973 699C299.239 699.781 299.372 700.629 299.372 701.543V701.801C299.372 702.715 299.239 703.562 298.973 704.344C298.708 705.125 298.325 705.805 297.825 706.383C297.333 706.961 296.731 707.414 296.02 707.742C295.309 708.07 294.509 708.234 293.618 708.234C292.72 708.234 291.911 708.07 291.192 707.742C290.481 707.414 289.876 706.961 289.376 706.383C288.884 705.805 288.505 705.125 288.239 704.344C287.973 703.562 287.841 702.715 287.841 701.801V701.543ZM290.009 701.801C290.009 702.426 290.083 703.023 290.231 703.594C290.38 704.156 290.602 704.652 290.899 705.082C291.204 705.512 291.583 705.852 292.036 706.102C292.489 706.352 293.016 706.477 293.618 706.477C294.212 706.477 294.731 706.352 295.177 706.102C295.63 705.852 296.005 705.512 296.302 705.082C296.606 704.652 296.833 704.156 296.981 703.594C297.13 703.023 297.204 702.426 297.204 701.801V701.543C297.204 700.926 297.126 700.336 296.97 699.773C296.821 699.203 296.595 698.703 296.29 698.273C295.993 697.844 295.618 697.504 295.165 697.254C294.72 696.996 294.196 696.867 293.595 696.867C292.993 696.867 292.47 696.996 292.024 697.254C291.579 697.504 291.204 697.844 290.899 698.273C290.602 698.703 290.38 699.203 290.231 699.773C290.083 700.336 290.009 700.926 290.009 701.543V701.801ZM73.9688 751.688C73.9688 751.164 73.8477 750.723 73.6055 750.363C73.3711 750.004 73.0664 749.703 72.6914 749.461C72.3164 749.211 71.9023 749.004 71.4492 748.84C71.0039 748.676 70.5742 748.527 70.1602 748.395C69.5586 748.199 68.9453 747.965 68.3203 747.691C67.7031 747.418 67.1367 747.082 66.6211 746.684C66.1133 746.285 65.6953 745.816 65.3672 745.277C65.0469 744.73 64.8867 744.09 64.8867 743.355C64.8867 742.621 65.0469 741.965 65.3672 741.387C65.6953 740.809 66.1211 740.32 66.6445 739.922C67.168 739.523 67.7617 739.223 68.4258 739.02C69.0898 738.809 69.7578 738.703 70.4297 738.703C71.1719 738.703 71.8867 738.828 72.5742 739.078C73.2617 739.32 73.8711 739.664 74.4023 740.109C74.9336 740.555 75.3594 741.094 75.6797 741.727C76 742.359 76.168 743.066 76.1836 743.848H73.957C73.8945 743.355 73.7734 742.91 73.5938 742.512C73.4141 742.105 73.1758 741.758 72.8789 741.469C72.582 741.18 72.2266 740.957 71.8125 740.801C71.4062 740.637 70.9453 740.555 70.4297 740.555C70.0156 740.555 69.6094 740.613 69.2109 740.73C68.8203 740.848 68.4688 741.023 68.1562 741.258C67.8516 741.492 67.6055 741.781 67.418 742.125C67.2383 742.469 67.1484 742.867 67.1484 743.32C67.1562 743.812 67.2812 744.23 67.5234 744.574C67.7656 744.91 68.0703 745.195 68.4375 745.43C68.8125 745.664 69.2148 745.859 69.6445 746.016C70.082 746.172 70.4922 746.309 70.875 746.426C71.2969 746.559 71.7227 746.711 72.1523 746.883C72.582 747.047 72.9961 747.238 73.3945 747.457C73.793 747.676 74.1641 747.922 74.5078 748.195C74.8516 748.469 75.1523 748.781 75.4102 749.133C75.668 749.477 75.8672 749.859 76.0078 750.281C76.1562 750.695 76.2305 751.156 76.2305 751.664C76.2305 752.43 76.0586 753.098 75.7148 753.668C75.3789 754.238 74.9414 754.715 74.4023 755.098C73.8633 755.473 73.2539 755.758 72.5742 755.953C71.8945 756.141 71.2148 756.234 70.5352 756.234C69.7773 756.234 69.0352 756.117 68.3086 755.883C67.582 755.648 66.9297 755.312 66.3516 754.875C65.7812 754.43 65.3164 753.891 64.957 753.258C64.5977 752.617 64.4062 751.891 64.3828 751.078H66.5977C66.668 751.609 66.8125 752.082 67.0312 752.496C67.25 752.902 67.5312 753.25 67.875 753.539C68.2188 753.82 68.6133 754.035 69.0586 754.184C69.5117 754.324 70.0039 754.395 70.5352 754.395C70.957 754.395 71.3711 754.344 71.7773 754.242C72.1914 754.133 72.5586 753.969 72.8789 753.75C73.1992 753.523 73.4609 753.242 73.6641 752.906C73.8672 752.562 73.9688 752.156 73.9688 751.688ZM82.312 738.938L85.0894 747.469L88.0894 738.938H90.7847V756H88.6753V749.191L88.8511 742.066L85.6987 751.254H84.4566L81.562 742.312L81.7378 749.191V756H79.6284V738.938H82.312ZM94.8272 738.938H105.14V740.824H101.05V754.125H105.14V756H94.8272V754.125H98.8233V740.824H94.8272V738.938ZM112.17 754.16H120.514V756H110.002V738.938H112.17V754.16ZM134.002 748.113H126.877V754.16H135.186V756H124.709V738.938H135.08V740.789H126.877V746.273H134.002V748.113ZM143.869 754.594C143.869 754.359 143.904 754.141 143.974 753.938C144.052 753.734 144.162 753.559 144.302 753.41C144.443 753.254 144.619 753.133 144.83 753.047C145.041 752.961 145.287 752.918 145.568 752.918C145.849 752.918 146.095 752.961 146.306 753.047C146.525 753.133 146.705 753.254 146.845 753.41C146.994 753.559 147.103 753.734 147.173 753.938C147.252 754.141 147.291 754.359 147.291 754.594C147.291 754.82 147.252 755.035 147.173 755.238C147.103 755.434 146.994 755.605 146.845 755.754C146.705 755.902 146.525 756.016 146.306 756.094C146.095 756.18 145.849 756.223 145.568 756.223C145.287 756.223 145.041 756.18 144.83 756.094C144.619 756.016 144.443 755.902 144.302 755.754C144.162 755.605 144.052 755.434 143.974 755.238C143.904 755.035 143.869 754.82 143.869 754.594ZM143.869 744.328C143.869 744.094 143.904 743.875 143.974 743.672C144.052 743.469 144.162 743.293 144.302 743.145C144.443 742.988 144.619 742.867 144.83 742.781C145.041 742.695 145.287 742.652 145.568 742.652C145.849 742.652 146.095 742.695 146.306 742.781C146.525 742.867 146.705 742.988 146.845 743.145C146.994 743.293 147.103 743.469 147.173 743.672C147.252 743.875 147.291 744.094 147.291 744.328C147.291 744.555 147.252 744.77 147.173 744.973C147.103 745.168 146.994 745.34 146.845 745.488C146.705 745.637 146.525 745.754 146.306 745.84C146.095 745.918 145.849 745.957 145.568 745.957C145.287 745.957 145.041 745.918 144.83 745.84C144.619 745.754 144.443 745.637 144.302 745.488C144.162 745.34 144.052 745.168 143.974 744.973C143.904 744.77 143.869 744.555 143.869 744.328ZM162.314 749.191C162.314 750.309 162.224 751.359 162.044 752.344C161.872 753.328 161.638 754.242 161.341 755.086C161.044 755.922 160.7 756.684 160.31 757.371C159.927 758.066 159.521 758.684 159.091 759.223C158.669 759.77 158.239 760.23 157.802 760.605C157.372 760.988 156.962 761.289 156.571 761.508L156.114 760.184C156.599 759.824 157.079 759.32 157.556 758.672C158.04 758.031 158.47 757.254 158.845 756.34C159.228 755.426 159.536 754.375 159.771 753.188C160.013 752 160.134 750.676 160.134 749.215V749.051C160.134 747.59 160.009 746.266 159.759 745.078C159.509 743.883 159.185 742.828 158.786 741.914C158.396 740.992 157.962 740.211 157.485 739.57C157.017 738.93 156.56 738.43 156.114 738.07L156.571 736.746C156.962 736.965 157.372 737.266 157.802 737.648C158.239 738.031 158.669 738.492 159.091 739.031C159.521 739.57 159.927 740.188 160.31 740.883C160.7 741.578 161.044 742.348 161.341 743.191C161.638 744.027 161.872 744.938 162.044 745.922C162.224 746.906 162.314 747.957 162.314 749.074V749.191ZM179.821 757.77H169.075V756H179.821V757.77Z" fill="#FF0000"/>
<g style="mix-blend-mode:overlay">
<rect x="8" y="4" width="786" height="814" rx="50" fill="white"/>
</g>
<defs>
<filter id="filter0_d" x="0" y="0" width="802" height="832" filterUnits="userSpaceOnUse" color-interpolation-filters="sRGB">
<feFlood flood-opacity="0" result="BackgroundImageFix"/>
<feColorMatrix in="SourceAlpha" type="matrix" values="0 0 0 0 0 0 0 0 0 0 0 0 0 0 0 0 0 0 127 0"/>
<feOffset dy="4"/>
<feGaussianBlur stdDeviation="2"/>
<feColorMatrix type="matrix" values="0 0 0 0 0 0 0 0 0 0 0 0 0 0 0 0 0 0 0.25 0"/>
<feBlend mode="normal" in2="BackgroundImageFix" result="effect1_dropShadow"/>
<feBlend mode="normal" in="SourceGraphic" in2="effect1_dropShadow" result="shape"/>
</filter>
</defs>
</svg>
